<svg version="1.1" xmlns="http://www.w3.org/2000/svg" width="200px" height="196px" transform="rotate(0) scale(1, 1)">
<path d="M0 0 C0.92935364 -0.00571014 1.85870728 -0.01142029 2.81622314 -0.01730347 C3.8287767 -0.01842133 4.84133026 -0.01953918 5.88456726 -0.02069092 C6.95655365 -0.02565582 8.02854004 -0.03062073 9.13301086 -0.03573608 C12.68130636 -0.05034771 16.22955716 -0.05715796 19.77787781 -0.06268311 C22.24403891 -0.06843522 24.7102 -0.07419295 27.17636108 -0.07995605 C32.34879261 -0.09046309 37.5212086 -0.09630776 42.69364929 -0.09979248 C49.31806185 -0.10527761 55.94226891 -0.12930755 62.56661701 -0.15776443 C67.66158649 -0.17639699 72.75650652 -0.18159675 77.85150719 -0.18312836 C80.29351615 -0.18615382 82.73552426 -0.19417874 85.17749977 -0.20731354 C88.59563927 -0.224387 92.0132773 -0.22249035 95.43144226 -0.21600342 C96.43792313 -0.2252182 97.44440399 -0.23443298 98.48138428 -0.243927 C105.67277541 -0.20122131 110.52459531 0.75277418 116.16459656 5.51544189 C121.24995608 11.61787332 121.45883693 18.91583847 121.21147156 26.57794189 C120.53452007 32.53709146 117.25755769 35.48596475 112.79692078 39.1428833 C108.81890823 42.14044189 108.81890823 42.14044189 106.35209656 42.14044189 C106.32704041 41.39359131 106.30198425 40.64674072 106.27616882 39.8772583 C106.16041443 36.50646923 106.03759528 33.13597407 105.91459656 29.76544189 C105.87528015 28.58981689 105.83596375 27.41419189 105.79545593 26.20294189 C105.7535614 25.08145752 105.71166687 23.95997314 105.66850281 22.80450439 C105.63184509 21.76761475 105.59518738 20.7307251 105.55741882 19.66241455 C105.51045433 17.14619024 105.51045433 17.14619024 104.35209656 15.14044189 C69.04209656 15.14044189 33.73209656 15.14044189 -2.64790344 15.14044189 C-2.67701823 40.5320419 -2.67701823 40.5320419 -2.69673157 65.92364502 C-2.70267479 76.27203871 -2.70967711 86.62042428 -2.7233429 96.96881104 C-2.73328905 104.50408769 -2.73975671 112.03935778 -2.74199194 119.57464081 C-2.74329916 123.56700042 -2.74638574 127.55934126 -2.7536335 131.55169487 C-2.76039264 135.30511288 -2.76252062 139.05850428 -2.76101112 142.8119278 C-2.7612875 144.19347083 -2.76329325 145.57501471 -2.76710892 146.95655251 C-2.77204444 148.83481334 -2.7703014 150.71308827 -2.76815796 152.59135437 C-2.76954065 154.17176844 -2.76954065 154.17176844 -2.77095127 155.78411007 C-2.91368654 158.0977487 -2.91368654 158.0977487 -1.64790344 159.14044189 C-0.27147445 159.23798754 1.1099109 159.26675809 2.48979187 159.26742554 C3.3816217 159.27024536 4.27345154 159.27306519 5.19230652 159.27597046 C6.17831848 159.27394623 7.16433044 159.271922 8.18022156 159.26983643 C9.72884888 159.2724649 9.72884888 159.2724649 11.3087616 159.27514648 C14.73989008 159.27956722 18.1709675 159.27662623 21.60209656 159.27325439 C23.97481801 159.27392737 26.3475394 159.27489734 28.72026062 159.27615356 C33.70041051 159.27763084 38.6805425 159.27547503 43.66069031 159.27081299 C50.06038335 159.26511569 56.46003445 159.26839454 62.85972595 159.27438545 C67.76144225 159.27799027 72.66314852 159.27685285 77.56486511 159.27425766 C79.9252981 159.27358817 82.28573199 159.27441757 84.64616394 159.27673721 C87.93879118 159.27926243 91.23134948 159.27542498 94.52397156 159.26983643 C95.50998352 159.27186066 96.49599548 159.27388489 97.5118866 159.27597046 C98.40371643 159.27315063 99.29554626 159.27033081 100.21440125 159.26742554 C101.383591 159.26686 101.383591 159.26686 102.57640076 159.26628304 C104.37741654 159.33357239 104.37741654 159.33357239 105.35209656 158.14044189 C105.42794782 156.56074446 105.43510904 154.97768567 105.41459656 153.39630127 C105.40549255 152.38434692 105.39638855 151.37239258 105.38700867 150.32977295 C105.37548767 149.2257312 105.36396667 148.12168945 105.35209656 146.98419189 C105.3509374 144.65867099 105.3523223 142.33314768 105.35600281 140.00762939 C105.36041098 136.33121753 105.35233341 132.65734611 105.30082703 128.98126221 C105.25536821 125.43930257 105.26755001 121.90129606 105.28959656 118.35919189 C105.26188171 117.27134399 105.23416687 116.18349609 105.20561218 115.06268311 C105.30203894 108.85593398 106.21511438 105.58033928 110.60600281 101.06427002 C113.654119 98.3237164 116.7926489 96.16745367 120.35209656 94.14044189 C120.44504358 102.73793564 120.51598589 111.33521718 120.55934525 119.93309021 C120.58016248 123.92605418 120.60837145 127.91867276 120.65385437 131.91143799 C120.69752345 135.76940271 120.72127771 139.62703656 120.73160553 143.48522949 C120.73895937 144.95236413 120.75331944 146.41948199 120.77501678 147.88647461 C120.88815882 155.85792568 120.91868848 162.32500703 116.35209656 169.14044189 C112.30130932 172.99362975 109.18984917 174.25942557 103.66586304 174.28761292 C102.22124191 174.29834587 102.22124191 174.29834587 100.74743652 174.30929565 C99.16475227 174.31332901 99.16475227 174.31332901 97.5500946 174.31744385 C96.43763367 174.32401505 95.32517273 174.33058624 94.17900085 174.33735657 C90.49060502 174.35709818 86.80224989 174.36875335 83.11381531 174.37872314 C81.85531076 174.38279867 80.59680622 174.3868742 79.30016518 174.39107323 C73.32755832 174.40978481 67.35496442 174.42435067 61.38233536 174.4326852 C54.49422877 174.44245672 47.6064436 174.4687766 40.71845025 174.50918609 C34.74746516 174.54301056 28.77655866 174.55483225 22.80547523 174.55888939 C20.26773205 174.56376569 17.72999255 174.57540916 15.19231224 174.59392738 C11.64204061 174.61822702 8.09261112 174.6173702 4.5422821 174.6104126 C3.49323196 174.62322266 2.44418182 174.63603271 1.36334229 174.64923096 C-4.64489322 174.60628874 -8.06725541 174.13217601 -12.64790344 170.14044189 C-16.84917206 165.48498207 -17.77091145 162.31953377 -17.79507446 156.13220215 C-17.80580742 154.24800568 -17.80580742 154.24800568 -17.8167572 152.32574463 C-17.81959744 150.93096949 -17.82230917 149.53619408 -17.8249054 148.14141846 C-17.83117097 146.67451822 -17.83781786 145.20761957 -17.84481812 143.74072266 C-17.86585009 138.92084863 -17.87621984 134.10097431 -17.88618469 129.28106689 C-17.8902326 127.62107069 -17.89434953 125.96107466 -17.89853477 124.3010788 C-17.91758472 116.50187494 -17.93181604 108.70268053 -17.94014674 100.90345788 C-17.94991819 91.90426632 -17.97623599 82.90532078 -18.01664764 73.90621591 C-18.04682018 66.9481397 -18.0616167 59.99013398 -18.06492776 53.03199363 C-18.067277 48.87729968 -18.07622086 44.72286863 -18.10138893 40.56824493 C-18.12469469 36.65787929 -18.12889304 32.74794918 -18.11862755 28.83753204 C-18.11813268 27.40527903 -18.12443888 25.9730044 -18.13818359 24.54081726 C-18.26005839 11.0846545 -18.26005839 11.0846545 -13.64790344 5.14044189 C-9.26424649 0.97596779 -5.91343191 0.02183054 0 0 Z " fill="#000000" transform="translate(24.647903442382813,8.85955810546875)"/>
<path d="M0 0 C30.36 0 60.72 0 92 0 C92 29 92 29 86.15185547 37.2331543 C77.60755093 43.38867166 69.79639205 43.69814343 59.5703125 43.26953125 C57.84161367 43.24521908 56.11282393 43.22674508 54.38400269 43.21379089 C49.8803428 43.16465507 45.38232257 43.03744947 40.88085938 42.89263916 C35.45524154 42.73486462 30.02771403 42.67633722 24.60044861 42.60074615 C16.39640294 42.47557719 8.20467445 42.22629583 0 42 C0 28.14 0 14.28 0 0 Z M14 14 C14 18.62 14 23.24 14 28 C35.12 28 56.24 28 78 28 C78 23.38 78 18.76 78 14 C56.88 14 35.76 14 14 14 Z " fill="#000000" transform="translate(30,33)"/>
<path d="M0 0 C7.41701288 3.70850644 12.6101713 10.14639216 17 17 C13.83760418 20.19176092 10.66931241 23.3776081 7.5 26.5625 C6.1696875 27.90538086 6.1696875 27.90538086 4.8125 29.27539062 C0.30899633 33.79545129 -4.24442803 38.15602317 -9.08789062 42.30834961 C-12.55332251 45.3742303 -15.76140497 48.69815116 -19 52 C-22.86224792 55.93768245 -26.71913692 59.81192861 -30.90625 63.40625 C-35.68700152 67.52404575 -40.07638084 72.00537571 -44.5 76.5 C-49.04690531 81.11988934 -53.60434932 85.73280937 -58.34375 90.15625 C-58.95412109 90.73181641 -59.56449219 91.30738281 -60.19335938 91.90039062 C-62 93 -62 93 -64.02416992 92.8527832 C-67.63765634 91.29317514 -70.06972005 88.44224409 -72.8125 85.6875 C-73.42287109 85.10548828 -74.03324219 84.52347656 -74.66210938 83.92382812 C-75.23380859 83.35470703 -75.80550781 82.78558594 -76.39453125 82.19921875 C-76.91893799 81.68190186 -77.44334473 81.16458496 -77.98364258 80.6315918 C-79 79 -79 79 -78.84277344 77.00048828 C-77.89278618 74.74550694 -76.86314638 73.50432441 -75.12109375 71.79296875 C-74.52876953 71.20580078 -73.93644531 70.61863281 -73.32617188 70.01367188 C-72.70291016 69.41103516 -72.07964844 68.80839844 -71.4375 68.1875 C-70.84130859 67.59646484 -70.24511719 67.00542969 -69.63085938 66.39648438 C-66.54027027 63.35889573 -63.38292475 60.43911721 -60.09765625 57.61328125 C-55.5014306 53.63396874 -51.26029471 49.33299599 -47 45 C-42.15359596 40.07089282 -37.27002381 35.31027789 -32.02734375 30.8046875 C-28.18001943 27.37990169 -24.60985315 23.67145474 -21 20 C-16.04214311 14.95753804 -11.0564814 10.04825532 -5.67773438 5.45288086 C-3.68622809 3.72828046 -1.82408077 1.90008414 0 0 Z " fill="#000000" transform="translate(177,23)"/>
<path d="M0 0 C30.36 0 60.72 0 92 0 C92 4.62 92 9.24 92 14 C61.64 14 31.28 14 0 14 C0 9.38 0 4.76 0 0 Z " fill="#000000" transform="translate(30,145)"/>
<path d="M0 0 C15.51 0 31.02 0 47 0 C47 4.62 47 9.24 47 14 C31.49 14 15.98 14 0 14 C0 9.38 0 4.76 0 0 Z " fill="#000000" transform="translate(30,118)"/>
<path d="M0 0 C15.18 0 30.36 0 46 0 C46 4.62 46 9.24 46 14 C30.82 14 15.64 14 0 14 C0 9.38 0 4.76 0 0 Z " fill="#000000" transform="translate(30,89)"/>
<path d="M0 0 C4.26699718 1.66744307 7.08234918 4.7509039 10.25 7.9375 C10.80429688 8.47568359 11.35859375 9.01386719 11.9296875 9.56835938 C13.34883239 10.98575654 14.68141504 12.48860308 16 14 C16 14.99 16 15.98 16 17 C12.75362269 18.17692357 9.5023602 19.33972274 6.25 20.5 C5.32960938 20.83386719 4.40921875 21.16773437 3.4609375 21.51171875 C2.57148437 21.82753906 1.68203125 22.14335938 0.765625 22.46875 C-0.45979004 22.90864258 -0.45979004 22.90864258 -1.70996094 23.35742188 C-4 24 -4 24 -8 24 C-4.25531915 4.25531915 -4.25531915 4.25531915 0 0 Z " fill="#000000" transform="translate(93,105)"/>
</svg>