<svg xmlns="http://www.w3.org/2000/svg" version="1.1" viewBox="-1.01 58 1001.01 775.68">
<path d="M0 0 C4.12879821 1.08508912 6.95194522 3.35266313 10.1875 6.0625 C11.15042969 6.86816406 12.11335937 7.67382812 13.10546875 8.50390625 C16.61901548 11.53380687 20.05646596 14.63954443 23.484375 17.765625 C26.01330295 20.01181566 28.61049914 22.13531218 31.25 24.25 C37.01234335 28.9089159 42.38492006 33.93327716 47.78515625 39 C50.78710002 41.81394325 53.86041198 44.53151903 56.97265625 47.22265625 C65.46463132 54.66745135 73.66678491 62.45650046 81.90869141 70.17578125 C84.43756776 72.54261058 86.97267551 74.90227018 89.51635742 77.25317383 C100.03086521 86.99959462 110.21447589 97.06030897 120.33959961 107.20922852 C123.08657845 109.96162595 125.83894203 112.70855896 128.59179688 115.45507812 C130.36490448 117.2288457 132.13770231 119.002923 133.91015625 120.77734375 C134.72065933 121.5858226 135.53116241 122.39430145 136.3662262 123.22727966 C140.59057131 127.46894776 144.660258 131.78451547 148.55332947 136.33314514 C150.43288949 138.49877559 152.44252422 140.50394141 154.5 142.5 C157.95048906 145.90370276 161.16637394 149.42438989 164.3203125 153.1015625 C165.98204576 154.97970753 167.71125525 156.74305516 169.5 158.5 C172.53254565 161.48537272 175.33833387 164.61080407 178.1171875 167.83203125 C180.2157532 170.24842951 182.354397 172.62529024 184.5 175 C191.39164161 182.64451002 198.10575154 190.43467585 204.79296875 198.2578125 C206.95228721 200.78220751 209.12232752 203.29679018 211.30078125 205.8046875 C212.1047937 206.7335376 212.1047937 206.7335376 212.92504883 207.68115234 C213.94433686 208.85828703 214.96614874 210.03324302 215.9909668 211.20556641 C223.97293239 220.44465372 223.97293239 220.44465372 224.05078125 224.91796875 C222.68998538 228.90929938 220.6526052 231.91849008 218.1875 235.3125 C217.69757568 236.00400146 217.20765137 236.69550293 216.70288086 237.40795898 C215.66574645 238.87060975 214.62439004 240.33027479 213.57910156 241.78710938 C212.04022469 243.94363071 210.52795072 246.11627675 209.0234375 248.296875 C203.26961362 256.6077427 197.24670362 264.60970868 190.8671875 272.44921875 C188.17070949 275.76622894 185.57930051 279.15415711 183 282.5625 C178.11132537 288.98078399 172.8903283 295.0865675 167.59277344 301.16894531 C165.94451257 303.06378843 164.30356098 304.96475957 162.6640625 306.8671875 C159.45470775 310.58863856 156.2315402 314.29780493 153 318 C152.22011719 318.89460938 151.44023438 319.78921875 150.63671875 320.7109375 C145.88507203 326.07934275 140.9054713 331.17555237 135.77929688 336.18408203 C132.92557627 338.99071447 130.22769475 341.86018003 127.625 344.90234375 C123.89341709 349.21824246 119.81672131 353.07412548 115.625 356.9375 C111.04295619 361.19688542 106.4862459 365.44984118 102.125 369.9375 C98.27202306 373.84975351 94.10317498 377.25372477 89.8203125 380.68359375 C86.95614967 383.03601558 84.22514219 385.4883661 81.5 388 C76.17006181 392.89330483 70.64284695 397.47388947 65 402 C63.89157874 402.90061312 62.78352207 403.80167508 61.67578125 404.703125 C45.00179945 418.2204601 27.69179755 430.85199995 10 443 C9.40654785 443.41507812 8.8130957 443.83015625 8.20166016 444.2578125 C5.77306318 445.93198791 4.04294188 446.99066481 1.125 447.625 C-6.30968983 446.13806203 -11.93460047 439.32188495 -17.3515625 434.36328125 C-20.06462258 431.9423353 -22.85406059 429.6533958 -25.6875 427.375 C-29.47047411 424.31461645 -32.96241355 421.15704685 -36.34375 417.6640625 C-38.68551333 415.31125312 -41.19457261 413.1752333 -43.70703125 411.0078125 C-46.99829678 408.12585256 -50.20994926 405.15860625 -53.42749023 402.19506836 C-56.67649798 399.20516194 -59.95287197 396.2494802 -63.25 393.3125 C-66.90795093 390.03436825 -70.41071835 386.65248097 -73.8203125 383.1171875 C-75.69244061 381.29874048 -77.60510721 379.61063013 -79.5859375 377.9140625 C-85.78976389 372.52460481 -91.45693227 366.58672724 -97.22265625 360.73828125 C-101.74282349 356.17863657 -106.30190484 351.76893982 -111.17724609 347.59130859 C-114.09875716 345.04075821 -116.83139584 342.31385957 -119.5625 339.5625 C-120.08779297 339.04107422 -120.61308594 338.51964844 -121.15429688 337.98242188 C-123.96956222 335.16028165 -126.65216762 332.27323386 -129.24609375 329.24609375 C-133.73041191 324.0659652 -138.62351467 319.30751099 -143.5 314.5 C-149.03335431 309.04491095 -154.47331956 303.59697397 -159.52929688 297.69335938 C-161.41754497 295.51924105 -163.43380292 293.50451955 -165.5 291.5 C-168.82426543 288.21484357 -171.9463983 284.84219312 -174.98828125 281.296875 C-177.60280085 278.31175359 -180.30038639 275.40807318 -183 272.5 C-186.83135827 268.36808538 -190.61636472 264.20960088 -194.30078125 259.9453125 C-196.29406428 257.6633471 -198.33493027 255.42771426 -200.375 253.1875 C-204.35687534 248.77899516 -208.12983566 244.23151754 -211.85546875 239.60546875 C-214.32105198 236.60994231 -216.91732714 233.76073149 -219.58984375 230.94921875 C-221.47415689 228.34458646 -222.33984991 226.14871588 -223 223 C-222.0859375 220.5703125 -222.0859375 220.5703125 -220.375 218.125 C-219.72015625 217.17753906 -219.0653125 216.23007812 -218.390625 215.25390625 C-217.59731306 214.16666206 -216.80015749 213.08221613 -216 212 C-215.54689453 211.38237793 -215.09378906 210.76475586 -214.62695312 210.12841797 C-211.60137009 206.01951376 -208.52679746 201.9496275 -205.43408203 197.89111328 C-203.4528523 195.27848041 -201.51081924 192.6372277 -199.5625 190 C-195.4965898 184.57388476 -191.24039934 179.31750446 -186.94433594 174.07348633 C-183.33286845 169.66128385 -179.8032973 165.19545847 -176.3125 160.6875 C-172.18577051 155.38021245 -167.84192331 150.38164168 -163.26953125 145.44921875 C-161.28619538 143.30885456 -159.35039811 141.14063092 -157.4375 138.9375 C-154.14088058 135.14444847 -150.77914119 131.4127828 -147.40625 127.6875 C-146.09851855 126.22691683 -144.79532196 124.76198293 -143.51707458 123.27552795 C-139.18523738 118.24663359 -134.64033113 113.49401452 -129.94140625 108.80859375 C-129.1934227 108.05965347 -128.44543915 107.3107132 -127.67478943 106.53907776 C-126.10367536 104.96728775 -124.53131608 103.39674151 -122.95776367 101.82739258 C-120.56900154 99.44398696 -118.18562554 97.05528932 -115.80273438 94.66601562 C-114.2659455 93.12988763 -112.7288464 91.59406991 -111.19140625 90.05859375 C-110.48907364 89.35423691 -109.78674103 88.64988007 -109.06312561 87.92417908 C-105.09290579 83.97243047 -101.02708578 80.1913307 -96.77825928 76.54014587 C-94.01109158 74.14350891 -91.35692592 71.62919381 -88.6875 69.125 C-83.81068651 64.58329438 -78.79045542 60.29984158 -73.58984375 56.12890625 C-71.09828918 54.08079578 -68.73727891 51.94496742 -66.375 49.75 C-61.35346781 45.17411885 -56.00861817 41.09987013 -50.59130859 37.01098633 C-45.81890633 33.40632177 -41.13825957 29.7125676 -36.5 25.9375 C-25.82757078 17.29914053 -14.49436807 9.50101954 -3 2 C-2.01 1.34 -1.02 0.68 0 0 Z M0 24 C-0.52319824 25.02134033 -1.04639648 26.04268066 -1.58544922 27.0949707 C-19.2804283 61.63019654 -19.2804283 61.63019654 -25.47167969 73.32080078 C-31.04576104 83.84661459 -36.51298316 94.42862376 -42 105 C-35.52338632 111.54527036 -28.72353932 117.64924933 -21.5625 123.4375 C-17.65716102 126.59606736 -13.89390431 129.85999606 -10.1875 133.25 C-9.28257812 134.07628906 -8.37765625 134.90257812 -7.4453125 135.75390625 C-5.99461983 137.0864115 -4.54958162 138.42518748 -3.1171875 139.77734375 C-1.46062903 141.33694058 -1.46062903 141.33694058 1 143 C4.2274757 142.63782761 6.08090454 141.37534375 8.51171875 139.296875 C9.17905029 138.73476318 9.84638184 138.17265137 10.53393555 137.59350586 C11.24461182 136.98514893 11.95528809 136.37679199 12.6875 135.75 C19.41749611 130.08983691 26.26828166 124.64619417 33.28979492 119.35253906 C37.28654308 116.33439749 41.17910766 113.23854794 45 110 C44.38241258 105.79768872 42.93861982 102.58782824 40.97265625 98.8359375 C40.51617706 97.95853912 40.51617706 97.95853912 40.05047607 97.06341553 C39.06044876 95.16409113 38.06160028 93.26956501 37.0625 91.375 C36.37210239 90.05480573 35.68224608 88.73432825 34.99291992 87.41357422 C33.30246208 84.17831176 31.60495014 80.94682537 29.90405273 77.71704102 C28.66819588 75.3698141 27.43579123 73.02077872 26.203125 70.671875 C24.63074884 67.67862032 23.05303848 64.68825251 21.47265625 61.69921875 C19.60929788 58.16884605 17.76795534 54.62755528 15.93359375 51.08203125 C15.40467529 50.06157715 14.87575684 49.04112305 14.33081055 47.98974609 C13.31271054 46.0239876 12.29705416 44.0569606 11.28442383 42.08837891 C8.09517256 35.93717267 4.86086406 29.76242544 1 24 C0.67 24 0.34 24 0 24 Z M-26.421875 39.67578125 C-27.45477661 40.53840576 -27.45477661 40.53840576 -28.50854492 41.41845703 C-29.2482251 42.04349121 -29.98790527 42.66852539 -30.75 43.3125 C-32.30226657 44.60941323 -33.85566714 45.9049703 -35.41015625 47.19921875 C-36.57442139 48.16867432 -36.57442139 48.16867432 -37.76220703 49.15771484 C-40.85842803 51.70670935 -44.01626434 54.17048183 -47.1875 56.625 C-57.07535069 64.31728293 -66.49065093 72.55912237 -75.76171875 80.98046875 C-77.87977448 82.89152427 -80.02714567 84.76205583 -82.1875 86.625 C-85.95254445 89.90695321 -89.64789492 93.29173375 -93 97 C-93 97.33 -93 97.66 -93 98 C-88.77146436 98.34166314 -84.54209602 98.67174609 -80.3125 99 C-78.54422852 99.14308594 -78.54422852 99.14308594 -76.74023438 99.2890625 C-68.8093393 99.89745993 -60.95315656 100.11945912 -53 100 C-52.6282666 99.28158936 -52.2565332 98.56317871 -51.87353516 97.82299805 C-39.32559801 73.57976479 -39.32559801 73.57976479 -33.625 62.75 C-33.23086914 62.00073242 -32.83673828 61.25146484 -32.43066406 60.47949219 C-30.50890026 56.83410117 -28.5711002 53.19827329 -26.609375 49.57421875 C-26.23216309 48.87522461 -25.85495117 48.17623047 -25.46630859 47.45605469 C-24.75948194 46.14866256 -24.04909195 44.84318808 -23.33447266 43.54003906 C-21.55798122 40.44796969 -21.55798122 40.44796969 -21 37 C-23.68250883 37 -24.38464443 37.95817405 -26.421875 39.67578125 Z M26 43 C27.44992212 47.7970729 29.47142638 52.1450864 31.78125 56.57421875 C32.15128647 57.29209061 32.52132294 58.00996246 32.90257263 58.74958801 C34.09732309 61.06452731 35.29834075 63.37614048 36.5 65.6875 C37.32128104 67.27331524 38.14232543 68.85925306 38.96313477 70.4453125 C40.57441076 73.55660528 42.18858114 76.66636997 43.80517578 79.77490234 C45.64868053 83.32057615 47.48072663 86.87201601 49.30859375 90.42578125 C50.18435555 92.11746731 51.06059768 93.80890486 51.9375 95.5 C52.3190625 96.24467529 52.700625 96.98935059 53.09375 97.7565918 C54.76006046 100.94356427 56.22995994 103.68179349 59 106 C61.92940819 106.75561891 64.7458682 107.35406173 67.71875 107.859375 C68.57303589 108.01287415 69.42732178 108.16637329 70.30749512 108.32452393 C72.1120296 108.64604702 73.91761385 108.96172537 75.72412109 109.27197266 C78.49207663 109.74863554 81.25574766 110.2458681 84.01953125 110.74609375 C85.77322114 111.0559147 87.52712119 111.36454885 89.28125 111.671875 C90.52352356 111.89517487 90.52352356 111.89517487 91.79089355 112.12298584 C96.4355075 112.92599608 96.4355075 112.92599608 101 112 C99.88818359 110.99646484 99.88818359 110.99646484 98.75390625 109.97265625 C91.31601245 103.20689744 84.13753087 96.22511144 77.09008789 89.05297852 C73.11305278 85.02661584 69.03213118 81.21322119 64.7434082 77.52075195 C62.73275297 75.76688395 60.85292187 73.91909765 59 72 C55.87491498 68.83252041 52.63758111 65.88114753 49.265625 62.98046875 C46.46683217 60.53393778 43.73328706 58.01903688 41 55.5 C34.1197909 47.74823203 34.1197909 47.74823203 26 43 Z M-106 109 C-107.50711988 114.76615652 -108.70570292 120.52034041 -109.7265625 126.390625 C-109.87910492 127.25766052 -110.03164734 128.12469604 -110.18881226 129.01800537 C-110.5078539 130.83629486 -110.82543067 132.65484195 -111.14160156 134.47363281 C-111.62616727 137.25670416 -112.1174917 140.03852625 -112.609375 142.8203125 C-112.91967711 144.59367896 -113.22958678 146.36711414 -113.5390625 148.140625 C-113.68590485 148.96983459 -113.83274719 149.79904419 -113.98403931 150.65338135 C-114.11772919 151.42808777 -114.25141907 152.20279419 -114.38916016 153.00097656 C-114.50748199 153.67856018 -114.62580383 154.3561438 -114.74771118 155.05426025 C-115.08572384 157.33412764 -115.08572384 157.33412764 -115 161 C-107.25656436 159.45648666 -99.76108795 157.22910698 -92.24121094 154.85131836 C-90.82213534 154.40617916 -89.4005132 153.9690837 -87.9765625 153.53979492 C-85.89766384 152.91274616 -83.82756294 152.26199775 -81.7578125 151.60546875 C-80.5320752 151.22543701 -79.30633789 150.84540527 -78.04345703 150.45385742 C-72.48021729 147.79630146 -71.2745328 142.50241725 -69.08203125 137.01953125 C-68.81992355 136.36546799 -68.55781586 135.71140472 -68.2877655 135.03752136 C-67.73866227 133.66427619 -67.19168192 132.29018045 -66.64672852 130.9152832 C-65.81006557 128.80636369 -64.96509444 126.70091051 -64.11914062 124.59570312 C-63.58544195 123.2580101 -63.05222176 121.92012606 -62.51953125 120.58203125 C-62.03589111 119.36749268 -61.55225098 118.1529541 -61.05395508 116.90161133 C-59.88619783 114.20121097 -59.88619783 114.20121097 -60 112 C-65.7473052 111.57040884 -71.49478264 111.14322831 -77.24243164 110.71826172 C-79.19690773 110.5734137 -81.15133549 110.42791191 -83.10571289 110.28173828 C-85.91800627 110.07151345 -88.73046619 109.86365526 -91.54296875 109.65625 C-92.41398727 109.59062866 -93.2850058 109.52500732 -94.18241882 109.45739746 C-98.13079586 109.16835884 -102.03759424 108.91486326 -106 109 Z M-48 117 C-51.22338399 123.74385406 -54.09210835 130.60368127 -56.8125 137.5625 C-57.12646729 138.36026855 -57.44043457 139.15803711 -57.76391602 139.97998047 C-59.40261708 143.87440446 -59.40261708 143.87440446 -60 148 C-44.16 148 -28.32 148 -12 148 C-19.40282185 140.59717815 -27.1681755 133.79593004 -35.30859375 127.21875 C-38.73925363 124.39057175 -42.03701864 121.43062177 -45.3203125 118.43359375 C-46.7587232 116.89180208 -46.7587232 116.89180208 -48 117 Z M64 119 C65.55040832 122.83833256 67.11749949 126.66964415 68.6875 130.5 C69.12255859 131.57765625 69.55761719 132.6553125 70.00585938 133.765625 C71.28381263 136.87057809 72.6179033 139.94010703 74 143 C74.32476318 143.7425 74.64952637 144.485 74.98413086 145.25 C78.33644078 151.69718036 84.39563008 155.12658888 90.37573242 158.86669922 C92.203834 160.01021728 94.01569513 161.17647283 95.82617188 162.34765625 C101.05683759 166.26562464 101.05683759 166.26562464 107 168 C108.28614294 162.78663632 109.56777164 157.57219168 110.84521484 152.35668945 C111.28049558 150.5822956 111.71701212 148.80820443 112.15478516 147.03442383 C112.78352167 144.48597368 113.40781765 141.93647093 114.03125 139.38671875 C114.22811401 138.59287277 114.42497803 137.79902679 114.62780762 136.98112488 C115.37319289 133.91770056 116 131.16535979 116 128 C109.07726697 126.71452754 102.15377556 125.43320312 95.22973633 124.15478516 C92.87343888 123.71922173 90.51731791 123.28270246 88.16137695 122.84521484 C84.77861533 122.21722163 81.39523779 121.59264771 78.01171875 120.96875 C76.95538742 120.77188599 75.89905609 120.57502197 74.81071472 120.37219238 C73.82992447 120.19200562 72.84913422 120.01181885 71.83862305 119.82617188 C70.97480515 119.66628784 70.11098724 119.50640381 69.22099304 119.3416748 C66.88033373 118.92397498 66.88033373 118.92397498 64 119 Z M44.25 125.875 C38.63338319 130.68924298 32.87283463 135.25037281 26.97265625 139.7109375 C23.90689583 142.07169388 20.9229465 144.46474685 18 147 C18 147.33 18 147.66 18 148 C32.85 148 47.7 148 63 148 C57.43178927 134.2548944 57.43178927 134.2548944 51 121 C48.65892935 121 46.02697602 124.33670701 44.25 125.875 Z M-123 127 C-133.84570539 137.67604699 -133.84570539 137.67604699 -144 149 C-144.897265 150.04657928 -145.79582784 151.09204654 -146.6953125 152.13671875 C-149.29119457 155.15221841 -151.87856315 158.17486137 -154.46240234 161.20068359 C-155.45379386 162.3608226 -156.44622904 163.52007095 -157.43994141 164.67822266 C-163.19192042 171.38247599 -168.79193017 178.17769916 -174.20922852 185.15625 C-174.84429321 185.97416016 -174.84429321 185.97416016 -175.4921875 186.80859375 C-175.90178711 187.33694824 -176.31138672 187.86530273 -176.73339844 188.40966797 C-178.05660914 190.07107786 -179.43399137 191.67622487 -180.8203125 193.28515625 C-183.20868745 195.67966064 -183.20868745 195.67966064 -183 198 C-178.56592826 196.67926533 -174.92592637 194.93304532 -170.9921875 192.5078125 C-170.43278473 192.16625626 -169.87338196 191.82470001 -169.29702759 191.47279358 C-166.22636467 189.59426882 -163.173344 187.68759184 -160.11914062 185.7824707 C-158.85854028 184.99875946 -157.5974725 184.21579959 -156.3359375 183.43359375 C-155.71221252 183.04651749 -155.08848755 182.65944122 -154.44586182 182.26063538 C-150.66514271 179.94141361 -146.84264687 177.85549612 -142.8515625 175.91015625 C-132.87833164 171.2252456 -132.87833164 171.2252456 -126.99609375 162.4140625 C-125.9471584 158.16217975 -125.50993142 153.92395837 -125.21679688 149.56152344 C-124.86950035 145.4581055 -124.00036779 141.4694468 -123.1875 137.4375 C-122.09559515 132.20652206 -122.09559515 132.20652206 -123 127 Z M126 139 C124.83041036 143.6235519 123.67313135 148.24994699 122.52709961 152.87939453 C122.1356054 154.45347685 121.7407739 156.02673307 121.3425293 157.59912109 C120.77030819 159.86085894 120.21019836 162.12530682 119.65234375 164.390625 C119.47219223 165.09181458 119.29204071 165.79300415 119.10643005 166.51544189 C118.2561706 170.01950583 117.63506175 172.6137497 119 176 C120.60837247 177.22619918 120.60837247 177.22619918 122.69580078 178.03955078 C123.48310074 178.38766815 124.2704007 178.73578552 125.08155823 179.0944519 C125.94409714 179.4577359 126.80663605 179.8210199 127.6953125 180.1953125 C128.58729843 180.58494171 129.47928436 180.97457092 130.39830017 181.37600708 C133.30120901 182.64003933 136.21268988 183.88280079 139.125 185.125 C141.10268142 185.98017621 143.07981467 186.83662125 145.05639648 187.69433594 C148.93964701 189.37732871 152.82611044 191.05253485 156.71533203 192.72167969 C161.12613413 194.61779838 165.51860826 196.5499593 169.90234375 198.5078125 C170.97403809 198.98460449 172.04573242 199.46139648 173.14990234 199.95263672 C175.04406 200.79635455 176.9364211 201.64412128 178.82666016 202.49658203 C180.85921436 203.39074441 182.92617775 204.20623417 185 205 C185.66 204.67 186.32 204.34 187 204 C186.21496094 203.154375 185.42992187 202.30875 184.62109375 201.4375 C179.62463882 196.04598025 174.64823872 190.6506526 169.83984375 185.08984375 C166.96393428 181.82315252 164.00484489 178.6327707 161.05541992 175.43261719 C158.40819926 172.55470689 155.80321281 169.64899684 153.25 166.6875 C150.54711966 163.56631675 147.68660274 160.66550758 144.7421875 157.7734375 C142.95284173 155.95199585 141.28711468 154.06285721 139.625 152.125 C135.65647899 147.52512337 131.456317 143.13117799 127 139 C126.67 139 126.34 139 126 139 Z M-64 158 C-64 201.56 -64 245.12 -64 290 C-20.77 290 22.46 290 67 290 C67 246.44 67 202.88 67 158 C23.77 158 -19.46 158 -64 158 Z M-84.73046875 164.40625 C-85.48088943 164.65040649 -86.23131012 164.89456299 -87.00447083 165.14611816 C-89.40017938 165.92663178 -91.79383852 166.7132335 -94.1875 167.5 C-95.81171766 168.03035018 -97.43606514 168.56030298 -99.06054688 169.08984375 C-103.0418854 170.38862338 -107.02139673 171.69286654 -111 173 C-109.57567584 175.97816718 -108.22096735 177.97931682 -105.8125 180.25 C-103.36686407 182.62061642 -101.07456434 185.02501621 -98.875 187.625 C-95.07264561 192.04674243 -90.93234881 196.09847988 -86.78564453 200.19262695 C-83.06278165 203.88566789 -79.53036717 207.67517803 -76.171875 211.70703125 C-75.78515625 212.13371094 -75.3984375 212.56039062 -75 213 C-74.67 213 -74.34 213 -74 213 C-74 196.17 -74 179.34 -74 162 C-77.85600462 162 -81.11024234 163.21009661 -84.73046875 164.40625 Z M77 165 C77 181.5 77 198 77 215 C79.60997145 212.39002855 81.50426213 210.49305631 83.48046875 207.56640625 C83.91842773 206.92340576 84.35638672 206.28040527 84.80761719 205.61791992 C85.26297852 204.93963135 85.71833984 204.26134277 86.1875 203.5625 C87.1543503 202.13240829 88.12180803 200.70272707 89.08984375 199.2734375 C89.57308105 198.55897461 90.05631836 197.84451172 90.55419922 197.10839844 C91.92726147 195.10607395 93.33117614 193.13130695 94.75390625 191.1640625 C95.17583252 190.5755249 95.59775879 189.9869873 96.0324707 189.38061523 C97.18763148 187.77423064 98.35138964 186.17403872 99.515625 184.57421875 C100.00546875 183.72472656 100.4953125 182.87523437 101 182 C99.76736319 178.30208956 98.5817765 177.76590507 95.37890625 175.64453125 C94.44369141 175.02255859 93.50847656 174.40058594 92.54492188 173.75976562 C91.06862305 172.79586914 91.06862305 172.79586914 89.5625 171.8125 C88.58216797 171.15830078 87.60183594 170.50410156 86.59179688 169.83007812 C82.13970595 166.4283753 82.13970595 166.4283753 77 165 Z M-132.671875 182.93359375 C-134.04209945 183.76712322 -135.41254853 184.60028351 -136.78320312 185.43310547 C-137.48550049 185.86145691 -138.18779785 186.28980835 -138.91137695 186.73114014 C-142.09927918 188.66782334 -145.30671124 190.57105921 -148.515625 192.47265625 C-149.78712102 193.22743806 -151.05860525 193.98223975 -152.33007812 194.73706055 C-153.63671055 195.51222085 -154.94335134 196.28736705 -156.25 197.0625 C-157.62956995 197.88124495 -159.00912701 198.70001161 -160.38867188 199.51879883 C-173.58858827 207.3523753 -186.79335276 215.17777745 -200 223 C-197.36554993 225.06871947 -194.78988829 226.72066295 -191.7800293 228.18554688 C-190.53934189 228.79315605 -190.53934189 228.79315605 -189.27359009 229.41304016 C-188.38279755 229.84392441 -187.492005 230.27480865 -186.57421875 230.71875 C-185.17615494 231.40102913 -185.17615494 231.40102913 -183.74984741 232.09709167 C-180.73107406 233.56889532 -177.7093691 235.03456446 -174.6875 236.5 C-172.62608111 237.50337537 -170.56480178 238.50703751 -168.50366211 239.51098633 C-149.25042255 248.88566858 -149.25042255 248.88566858 -129.90673828 258.07177734 C-128.15271788 258.92565514 -126.44599825 259.87494216 -124.74609375 260.83203125 C-122.11202813 262.15612941 -122.11202813 262.15612941 -119.48828125 262.0390625 C-115.97342464 260.57132018 -113.73381661 258.11203346 -111.1875 255.375 C-110.12696595 254.2728445 -109.06446682 253.17257645 -108 252.07421875 C-107.48695313 251.54231934 -106.97390625 251.01041992 -106.4453125 250.46240234 C-104.0243092 248.01277231 -101.4128986 245.80521056 -98.79296875 243.57421875 C-96.3402957 241.4207825 -94.08389685 239.09597747 -91.80078125 236.765625 C-89.21679122 234.23208163 -86.4680399 231.90632825 -83.69921875 229.578125 C-81.77407483 227.91265024 -81.77407483 227.91265024 -80 225 C-80.56847656 224.443125 -81.13695312 223.88625 -81.72265625 223.3125 C-85.35544105 219.72216844 -88.94457024 216.14657715 -92.25 212.25 C-96.00923584 207.85836934 -100.12274073 203.85042411 -104.23022461 199.78930664 C-107.77519043 196.26895508 -111.13200324 192.65788245 -114.375 188.85546875 C-117.39349804 185.40886642 -120.53169415 181.99789195 -124 179 C-127.33491937 179 -129.89951346 181.22518388 -132.671875 182.93359375 Z M112 187 C111.58862793 187.59200195 111.17725586 188.18400391 110.75341797 188.79394531 C101.19483315 202.54749542 91.61481021 216.2856933 82 230 C87.46127651 236.6644493 93.56357717 242.64341723 99.6875 248.6875 C101.75684098 250.7301357 103.82276124 252.77614515 105.88671875 254.82421875 C107.25123169 256.17132935 107.25123169 256.17132935 108.64331055 257.5456543 C110.6282566 259.61285234 112.35327768 261.66121155 114 264 C121.19173037 261.84018321 127.74560069 258.85607304 134.472229 255.53353882 C137.66675697 253.95640552 140.87075301 252.39872163 144.07421875 250.83984375 C144.73103638 250.51979874 145.387854 250.19975372 146.0645752 249.87001038 C152.8789984 246.55735072 159.74616147 243.36405933 166.625 240.1875 C177.44706147 235.18763952 188.23853419 230.12892521 199 225 C195.35178825 221.90178787 191.29122962 220.2093833 186.94140625 218.33203125 C185.73414131 217.80357101 185.73414131 217.80357101 184.50248718 217.26443481 C181.85808117 216.10853738 179.21042736 214.96030522 176.5625 213.8125 C174.7280393 213.01344834 172.89373108 212.21404653 171.05957031 211.41430664 C167.271049 209.76362826 163.48103165 208.11644901 159.68994141 206.47167969 C155.07426385 204.46842502 150.46311535 202.45502318 145.85386658 200.43702698 C142.46091883 198.95231755 139.06604272 197.47205951 135.67062378 195.99301147 C134.06379965 195.29235683 132.45761189 194.59024089 130.8520813 193.8866272 C128.6169748 192.90791886 126.37920487 191.93557593 124.140625 190.96484375 C123.48720627 190.67715118 122.83378754 190.38945862 122.16056824 190.0930481 C118.79665542 188.64261757 115.62564524 187.55557022 112 187 Z M-81.625 244.125 C-82.98550301 245.40513295 -84.34618552 246.68507514 -85.70703125 247.96484375 C-86.41166504 248.6285498 -87.11629883 249.29225586 -87.84228516 249.97607422 C-89.97295203 251.97462914 -92.11497563 253.96014021 -94.26171875 255.94140625 C-95.28048096 256.8837915 -95.28048096 256.8837915 -96.31982422 257.84521484 C-97.62806347 259.05471905 -98.93822632 260.26214662 -100.25048828 261.46728516 C-100.84458496 262.01819824 -101.43868164 262.56911133 -102.05078125 263.13671875 C-102.57325439 263.61842529 -103.09572754 264.10013184 -103.6340332 264.59643555 C-105.23804461 266.15904717 -105.23804461 266.15904717 -107 269 C-103.33393878 270.91782632 -99.66704149 272.83404879 -96 274.75 C-94.97003906 275.28882813 -93.94007813 275.82765625 -92.87890625 276.3828125 C-89.92199433 277.92718688 -86.96201443 279.46543758 -84 281 C-83.18660156 281.42345703 -82.37320313 281.84691406 -81.53515625 282.28320312 C-77.95266071 284.29193812 -77.95266071 284.29193812 -74 285 C-74 269.49 -74 253.98 -74 238 C-76.51178868 238 -79.75991369 242.36148124 -81.625 244.125 Z M77 244 C77 257.53 77 271.06 77 285 C87.00410384 280.0192677 87.00410384 280.0192677 96.75 274.625 C97.36359375 274.27050781 97.9771875 273.91601562 98.609375 273.55078125 C100.07471834 272.70362963 101.53765353 271.85231436 103 271 C101.41576811 267.10440412 98.75252743 264.47885592 95.80859375 261.578125 C95.30328629 261.07327576 94.79797882 260.56842651 94.27735901 260.04827881 C93.21307011 258.98700128 92.14636151 257.92814545 91.07739258 256.87158203 C89.4344325 255.24696675 87.79970383 253.61440222 86.16601562 251.98046875 C85.13068068 250.95004601 84.0948893 249.92008165 83.05859375 248.890625 C82.56693222 248.40007629 82.07527069 247.90952759 81.56871033 247.40411377 C79.61772792 245.03071425 79.61772792 245.03071425 77 244 Z M183.9453125 245.24609375 C182.3358374 245.99560303 182.3358374 245.99560303 180.69384766 246.76025391 C179.51612793 247.31374512 178.3384082 247.86723633 177.125 248.4375 C175.89513424 249.01245247 174.66515117 249.58715406 173.43505859 250.16162109 C169.28693672 252.10116168 165.14329241 254.05016876 161 256 C160.2260791 256.36397888 159.4521582 256.72795776 158.65478516 257.10296631 C152.9765859 259.77357893 147.30007944 262.4477643 141.625 265.125 C140.83901428 265.49575653 140.05302856 265.86651306 139.2432251 266.24850464 C136.98724697 267.31321274 134.73179842 268.37903332 132.4765625 269.4453125 C131.47502136 269.91803841 131.47502136 269.91803841 130.45324707 270.40031433 C128.63309761 271.26182288 126.81645006 272.13071858 125 273 C123.88141602 273.38744385 122.76283203 273.7748877 121.61035156 274.17407227 C118.58098505 275.86643788 118.58098505 275.86643788 118.04345703 279.88208008 C117.91837691 281.50921001 117.82528616 283.13899632 117.7578125 284.76953125 C117.69971405 285.64212082 117.6416156 286.51471039 117.58175659 287.41374207 C117.40252719 290.21242893 117.26378271 293.01154687 117.125 295.8125 C117.01035297 297.65575873 116.8931914 299.49886289 116.7734375 301.34179688 C116.15816514 311.23560215 115.83081033 321.0856941 116 331 C123.68958682 324.61927902 130.69022444 317.67021068 137.1953125 310.0859375 C139.21651276 307.74974499 141.29378839 305.47035149 143.375 303.1875 C147.35017394 298.78713767 151.10560136 294.24044341 154.83203125 289.62890625 C156.74472621 287.30954822 158.71637367 285.08768777 160.75 282.875 C165.825534 277.24115726 170.30390782 271.14403342 174.875 265.1015625 C177.35533537 261.82781865 179.90050856 258.61793838 182.5 255.4375 C185.7072829 251.47596201 188.40219033 247.38380381 191 243 C188.23391169 243 186.45483095 244.07277583 183.9453125 245.24609375 Z M-182 247 C-177.86968761 251.91172285 -173.58487282 256.66562304 -169.23876953 261.38598633 C-166.3253107 264.5511468 -163.43289966 267.73309019 -160.5625 270.9375 C-153.15132578 279.1854197 -145.71679546 287.39555166 -137.80078125 295.1640625 C-135.33883192 297.67407592 -133.0798428 300.33775297 -130.8359375 303.04296875 C-128.44616436 305.59036523 -125.68330846 307.76390962 -123 310 C-123.33 298.12 -123.66 286.24 -124 274 C-135.35481086 268.28548734 -146.71951486 262.60902863 -158.1875 257.125 C-159.10539307 256.68567139 -160.02328613 256.24634277 -160.96899414 255.79370117 C-163.64191362 254.5202261 -166.31920936 253.25681745 -169 252 C-170.50941162 251.29182129 -170.50941162 251.29182129 -172.04931641 250.56933594 C-173.0397998 250.11075195 -174.0302832 249.65216797 -175.05078125 249.1796875 C-175.95094971 248.76187012 -176.85111816 248.34405273 -177.77856445 247.91357422 C-179.9079554 246.87321803 -179.9079554 246.87321803 -182 247 Z M-112 281 C-112.02664921 290.35584712 -111.99967917 299.708341 -111.8125 309.0625 C-111.80669922 310.35349609 -111.80089844 311.64449219 -111.79492188 312.97460938 C-111.76591797 314.21146484 -111.73691406 315.44832031 -111.70703125 316.72265625 C-111.6913208 317.83390869 -111.67561035 318.94516113 -111.65942383 320.09008789 C-111.21231302 323.10148 -111.21231302 323.10148 -109.08789062 325.25854492 C-104.82007117 327.66543583 -100.68703369 328.34960052 -95.88671875 329.140625 C-94.91716751 329.31253357 -93.94761627 329.48444214 -92.94868469 329.66156006 C-89.86389946 330.20518521 -86.77598354 330.72784025 -83.6875 331.25 C-81.59025374 331.61580818 -79.49324492 331.98298044 -77.39648438 332.3515625 C-72.26696869 333.2501978 -67.1347265 334.13166269 -62 335 C-62.91568444 328.53576943 -65.00632793 322.59366343 -67.22583008 316.48681641 C-67.69847206 315.16731024 -68.15696767 313.84264707 -68.60083008 312.51318359 C-71.64474753 303.17502165 -71.64474753 303.17502165 -78.53515625 296.5234375 C-80.33997592 295.64683498 -82.16345348 294.80802405 -84 294 C-86.2009319 292.86258654 -88.39869465 291.71902596 -90.59375 290.5703125 C-92.89374382 289.41769601 -95.19585907 288.2693037 -97.5 287.125 C-98.67820312 286.53203125 -99.85640625 285.9390625 -101.0703125 285.328125 C-102.19179688 284.76867187 -103.31328125 284.20921875 -104.46875 283.6328125 C-105.99145508 282.87315186 -105.99145508 282.87315186 -107.54492188 282.09814453 C-109.85603355 280.86389656 -109.85603355 280.86389656 -112 281 Z M78.66711426 296.99731445 C69.48205985 308.03121667 60 333.52326404 60 348 C69.07315642 348.05951159 78.12066152 347.89719872 87.1875 347.5625 C88.39986328 347.52318359 89.61222656 347.48386719 90.86132812 347.44335938 C92.01439453 347.40146484 93.16746094 347.35957031 94.35546875 347.31640625 C95.39340576 347.27974854 96.43134277 347.24309082 97.50073242 347.20532227 C99.99760275 347.15639817 99.99760275 347.15639817 102 346 C102.45005705 343.20902119 102.76227386 340.49959993 103 337.6875 C103.07976074 336.81464355 103.15952148 335.94178711 103.24169922 335.04248047 C103.50935523 332.02939379 103.7570255 329.01517605 104 326 C104.09313477 324.85644043 104.18626953 323.71288086 104.28222656 322.53466797 C104.57309583 318.89880214 104.85176241 315.26223143 105.125 311.625 C105.21265625 310.48635498 105.3003125 309.34770996 105.390625 308.17456055 C105.96788524 300.1051374 106.0963106 292.08856184 106 284 C96.69851597 284 85.29249661 290.6321936 78.66711426 296.99731445 Z M-61 300 C-59.576875 304.16625 -58.15375 308.3325 -56.6875 312.625 C-56.0236731 314.57913818 -56.0236731 314.57913818 -55.34643555 316.57275391 C-54.988479 317.61351074 -54.63052246 318.65426758 -54.26171875 319.7265625 C-53.90037842 320.78439941 -53.53903809 321.84223633 -53.16674805 322.93212891 C-51.97085409 326.07663684 -50.55349786 329.01806575 -49 332 C-43.19280122 327.81881688 -37.77295443 323.29021388 -32.36694336 318.61206055 C-27.78720319 314.65401013 -23.13013406 310.81593155 -18.40234375 307.03515625 C-15.8050193 304.83482123 -13.40702809 302.40702809 -11 300 C-27.5 300 -44 300 -61 300 Z M15 300 C17.84826922 304.98447114 20.41180926 308.93012664 24.125 313.125 C27.97197749 317.5686092 31.68625112 322.07576767 35.25 326.75 C35.66008301 327.28665283 36.07016602 327.82330566 36.49267578 328.3762207 C38.37605575 330.84801446 40.24650181 333.32912557 42.109375 335.81640625 C42.73328125 336.64011719 43.3571875 337.46382813 44 338.3125 C44.53625 339.03050781 45.0725 339.74851562 45.625 340.48828125 C46.07875 340.98714844 46.5325 341.48601562 47 342 C47.66 342 48.32 342 49 342 C51.13827368 336.18002849 53.27446387 330.35929828 55.40869141 324.5378418 C56.13565169 322.55585858 56.86318989 320.57408724 57.59130859 318.5925293 C58.63529553 315.75103832 59.67722969 312.90880211 60.71875 310.06640625 C61.04685669 309.17474258 61.37496338 308.28307892 61.7130127 307.36439514 C62.01332397 306.54361984 62.31363525 305.72284454 62.62304688 304.87719727 C63.02275696 303.78798729 63.02275696 303.78798729 63.43054199 302.67677307 C64.05359605 301.13732493 64.05359605 301.13732493 64 300 C47.83 300 31.66 300 15 300 Z M-3.875 310.9375 C-5.07492777 311.96163278 -6.27545672 312.98506155 -7.4765625 314.0078125 C-8.07629883 314.51860352 -8.67603516 315.02939453 -9.29394531 315.55566406 C-11.59153678 317.50079159 -13.91691808 319.41014089 -16.25 321.3125 C-17.12398437 322.02535156 -17.99796875 322.73820312 -18.8984375 323.47265625 C-20.6160932 324.8723777 -22.33385805 326.2719648 -24.05175781 327.67138672 C-26.32841877 329.52819205 -28.60187277 331.38887103 -30.875 333.25 C-31.60106445 333.84079346 -32.32712891 334.43158691 -33.07519531 335.0402832 C-36.92354511 338.19530502 -40.55560978 341.40702825 -44 345 C-37.63333834 356.85619482 -31.22466568 368.68177894 -24.5625 380.375 C-19.11395026 389.94125158 -13.8575812 399.60156467 -8.66821289 409.31005859 C-5.84867767 414.58356512 -3.00408013 419.8291628 0 425 C0.66 425 1.32 425 2 425 C2.55945313 423.9790625 3.11890625 422.958125 3.6953125 421.90625 C8.57834415 413.03594608 13.57474129 404.23996138 18.6875 395.5 C19.55507935 394.01149536 19.55507935 394.01149536 20.44018555 392.49291992 C23.33172933 387.53728051 26.23854078 382.59194029 29.18632507 377.66958618 C30.60321548 375.2982934 32.00849317 372.92023823 33.41201782 370.54101562 C34.41953383 368.84278312 35.4424303 367.1537057 36.46557617 365.46484375 C37.07377197 364.43101562 37.68196777 363.3971875 38.30859375 362.33203125 C38.85314209 361.42171143 39.39769043 360.5113916 39.95874023 359.57348633 C41.19873262 356.50882987 41.04673404 355.1002554 40 352 C38.09109269 349.27774229 38.09109269 349.27774229 35.625 346.5625 C34.70780539 345.50027534 33.79251098 344.4364076 32.87890625 343.37109375 C32.40340332 342.81921387 31.92790039 342.26733398 31.43798828 341.69873047 C29.0695454 338.90083139 26.81588799 336.0157957 24.5625 333.125 C24.11003906 332.5462915 23.65757812 331.96758301 23.19140625 331.37133789 C22.2661528 330.18716376 21.34151508 329.00250828 20.41748047 327.81738281 C17.99188982 324.70747982 15.55889116 321.60340814 13.125 318.5 C12.68486572 317.93684082 12.24473145 317.37368164 11.79125977 316.79345703 C8.92601717 313.13846049 6.03758163 309.5138575 3 306 C0.62885816 306 -2.06831262 309.38259348 -3.875 310.9375 Z M-91 342 C-83.79333393 350.80814741 -75.65650917 358.85649635 -66.9921875 366.2265625 C-64.56062019 368.39113418 -62.28788919 370.68429453 -60 373 C-56.58132185 376.45488201 -53.10291301 379.72374629 -49.40625 382.875 C-47.34602693 384.69441777 -45.34075563 386.54964245 -43.34375 388.4375 C-42.68205811 389.06237305 -42.02036621 389.68724609 -41.33862305 390.33105469 C-40.01104128 391.58841012 -38.68684914 392.84935641 -37.36645508 394.11425781 C-34.09335403 397.20994002 -31.01964946 399.87873183 -27 402 C-28.43555593 398.21574634 -30.14730426 394.69346945 -32.0546875 391.125 C-32.66175537 389.98434082 -33.26882324 388.84368164 -33.89428711 387.66845703 C-35.23123569 385.18001121 -36.58868761 382.70397675 -37.95922852 380.23388672 C-38.65984311 378.9662766 -39.3596309 377.69820915 -40.05859375 376.4296875 C-40.40553787 375.8002121 -40.75248199 375.17073669 -41.10993958 374.52218628 C-43.20131386 370.6633053 -44.95247354 366.79748887 -46.53515625 362.6953125 C-48.88996843 356.99978346 -51.02920034 351.86097956 -56 348 C-66.76514463 343.62638582 -79.42963206 342 -91 342 Z M70.0625 359.375 C68.88236328 359.4059375 67.70222656 359.436875 66.48632812 359.46875 C64.77799805 359.52675781 64.77799805 359.52675781 63.03515625 359.5859375 C61.9975415 359.6173584 60.95992676 359.6487793 59.89086914 359.68115234 C56.82489727 360.01931291 54.70777442 360.51981468 52 362 C50.26231445 364.08283078 50.26231445 364.08283078 48.90625 366.671875 C48.35662598 367.63657715 47.80700195 368.6012793 47.24072266 369.59521484 C46.66628418 370.63629395 46.0918457 371.67737305 45.5 372.75 C44.26922354 374.92504214 43.03742755 377.09950765 41.8046875 379.2734375 C41.17916992 380.38557617 40.55365234 381.49771484 39.90917969 382.64355469 C36.3514168 388.89830203 32.62567344 395.05461209 28.91210938 401.21777344 C28.39712891 402.08176758 27.88214844 402.94576172 27.3515625 403.8359375 C26.66827881 404.97361572 26.66827881 404.97361572 25.97119141 406.13427734 C24.84608907 407.94511261 24.84608907 407.94511261 25 410 C28.71164158 408.35728782 31.68166296 406.05107313 34.875 403.5625 C35.44162354 403.12147949 36.00824707 402.68045898 36.59204102 402.22607422 C37.79156271 401.29141192 38.98986153 400.35517837 40.18701172 399.41748047 C41.9438937 398.04386657 43.70737131 396.67919623 45.47265625 395.31640625 C53.23287481 389.3030862 60.74334219 383.04556555 68.14990234 376.60302734 C70.14030756 374.87842974 72.14156343 373.16701794 74.14453125 371.45703125 C75.51311275 370.28396139 76.88160447 369.11078679 78.25 367.9375 C78.89445068 367.38916504 79.53890137 366.84083008 80.20288086 366.27587891 C80.80108643 365.7607373 81.39929199 365.2455957 82.015625 364.71484375 C82.54446289 364.26230225 83.07330078 363.80976074 83.61816406 363.34350586 C85.25267308 361.8483675 85.25267308 361.8483675 87 359 C81.34952088 359 75.70959632 359.19055483 70.0625 359.375 Z " fill="#FEFEFE" transform="translate(494,58)"/>
<path d="M0 0 C7.32040564 -0.07011436 14.64073658 -0.12311818 21.96141243 -0.15543652 C25.36225536 -0.170963 28.76286531 -0.1919563 32.16357422 -0.22631836 C36.09088052 -0.26309629 40.01786417 -0.27981641 43.9453125 -0.29296875 C45.1417337 -0.30845261 46.33815491 -0.32393646 47.5708313 -0.33988953 C61.38877991 -0.34258837 73.09382638 2.45838086 84.8125 9.75 C90.85566011 15.96582182 92.74304181 22.27393613 93.0625 30.859375 C92.89484819 39.28387841 90.61372291 45.60156313 85 52 C78.90830562 57.42824252 71.73283755 59.77566433 64 62 C64.54527344 62.66644531 65.09054688 63.33289063 65.65234375 64.01953125 C66.78349609 65.40205078 66.78349609 65.40205078 67.9375 66.8125 C68.76378906 67.82183594 69.59007812 68.83117187 70.44140625 69.87109375 C72.03554834 71.81922299 73.62632369 73.76992525 75.21484375 75.72265625 C80.22051031 81.86885444 85.28758262 87.95816561 90.44140625 93.98046875 C91.95830668 95.77064284 93.45437948 97.57940381 94.90234375 99.42578125 C99.91265721 105.68572583 105.74834359 109.36225154 113.75 110.5625 C117.76377381 109.86780838 119.78938883 108.49519704 123 106 C124.91520058 103.28304846 124.91520058 103.28304846 126.34228516 100.06152344 C126.62917521 99.45813015 126.91606525 98.85473686 127.21164894 98.23305893 C131.36177363 89.32650471 134.90897856 80.14806791 138.5234375 71.015625 C139.31760833 69.02238103 140.11234714 67.02936328 140.90762329 65.03656006 C142.98060866 59.83804523 145.0464645 54.63672811 147.1105957 49.43469238 C149.63257237 43.0825154 152.16268982 36.73357758 154.6919651 30.38430405 C156.65604764 25.45356227 158.61879872 20.52230505 160.57748413 15.5894165 C161.1145549 14.23806107 161.1145549 14.23806107 161.66247559 12.85940552 C162.33193522 11.17483141 163.00072531 9.489991 163.66873169 7.80484009 C165.88740875 2.22518251 165.88740875 2.22518251 167 0 C169.64 0 172.28 0 175 0 C177.62839379 6.39444355 180.25247782 12.79064633 182.875 19.1875 C183.27483093 20.16207153 183.67466187 21.13664307 184.08660889 22.14074707 C188.75717345 33.53043055 193.38963772 44.93339773 197.921875 56.37890625 C198.31887604 57.37967697 198.71587708 58.38044769 199.12490845 59.4115448 C201.02830081 64.21124118 202.92435484 69.01360631 204.80810547 73.82104492 C208.60214017 83.43789246 212.67553769 92.76206185 217.44677734 101.93652344 C219 105 219 105 220 108 C222.22721955 108.99325885 222.22721955 108.99325885 224.875 109.625 C225.75929688 109.86476563 226.64359375 110.10453125 227.5546875 110.3515625 C228.36164063 110.56554687 229.16859375 110.77953125 230 111 C230.99 111.33 231.98 111.66 233 112 C233 114.31 233 116.62 233 119 C216.17 119 199.34 119 182 119 C182 116.69 182 114.38 182 112 C185.96 111.01 189.92 110.02 194 109 C195.6083503 102.47773966 194.04272517 98.04322993 191.6875 91.875 C191.20506836 90.55435547 191.20506836 90.55435547 190.71289062 89.20703125 C189.20769601 85.10869847 187.62177144 81.05442861 186 77 C166.2 76.505 166.2 76.505 146 76 C145.01 79.3 144.02 82.6 143 86 C141.68535072 89.83655395 140.34368618 93.66205314 138.98828125 97.484375 C138.02567517 100.90866542 137.65222628 103.47186082 138 107 C139.64179359 110.12455058 139.64179359 110.12455058 142.1640625 110.73046875 C143.38222656 110.95669922 143.38222656 110.95669922 144.625 111.1875 C145.85089844 111.42533203 145.85089844 111.42533203 147.1015625 111.66796875 C148.04128906 111.83232422 148.04128906 111.83232422 149 112 C149 114.31 149 116.62 149 119 C140.97653002 119.32613026 132.9558771 119.57395944 124.92739391 119.72537041 C121.19797556 119.79809305 117.47312545 119.89645049 113.74633789 120.05615234 C87.6364468 121.14605958 87.6364468 121.14605958 81.72045898 116.05859375 C79.23245459 113.24387158 77.50855187 110.24085505 75.94038391 106.84191895 C74.30752617 103.64365963 71.97868803 100.99516334 69.6875 98.25 C66.56883387 94.28622041 63.46323114 90.31264594 60.37109375 86.328125 C59.74952393 85.52729492 59.1279541 84.72646484 58.48754883 83.90136719 C57.27674928 82.3402944 56.06689812 80.7784854 54.8581543 79.21582031 C53.24655758 77.1376293 51.62629536 75.06670184 50 73 C49.53682373 72.40614502 49.07364746 71.81229004 48.59643555 71.20043945 C44.01001027 65.47151291 39.0620071 64.08264244 32 63 C32.06914016 68.28406553 32.15723338 73.56735956 32.26245117 78.85083008 C32.29558413 80.64599 32.32365187 82.44125117 32.34643555 84.23657227 C32.38019664 86.82612012 32.43252125 89.41474971 32.48828125 92.00390625 C32.49467117 92.79898087 32.5010611 93.59405548 32.50764465 94.41322327 C32.64354511 99.63292797 33.50369703 103.38178428 36 108 C39.5397007 110.35980046 41.99106288 110.58600808 46.1875 111.125 C47.45980469 111.29257812 48.73210937 111.46015625 50.04296875 111.6328125 C51.50669922 111.81457031 51.50669922 111.81457031 53 112 C53 114.31 53 116.62 53 119 C34.85 119 16.7 119 -2 119 C-2 116.69 -2 114.38 -2 112 C-1.16855469 111.81824219 -0.33710938 111.63648438 0.51953125 111.44921875 C1.60621094 111.19785156 2.69289062 110.94648437 3.8125 110.6875 C4.89144531 110.44386719 5.97039062 110.20023438 7.08203125 109.94921875 C10.02125651 108.99308523 11.26763507 108.51509459 13 106 C14.17048087 101.64515433 14.15451774 97.30913821 14.16113281 92.83251953 C14.16609772 92.02373352 14.17106262 91.21494751 14.17617798 90.38165283 C14.1907413 87.71536396 14.19759128 85.04913455 14.203125 82.3828125 C14.20888054 80.52342732 14.21463822 78.66404215 14.22039795 76.80465698 C14.23089085 72.9093193 14.23674494 69.01400216 14.24023438 65.11865234 C14.24572042 60.13650825 14.26975807 55.15463726 14.29820633 50.17257881 C14.31686201 46.33262343 14.32203984 42.49273353 14.32357025 38.65273666 C14.32658986 36.81638977 14.33459498 34.98004383 14.34775543 33.14374161 C14.36488 30.57104124 14.36292037 27.99900434 14.35644531 25.42626953 C14.3656601 24.67382965 14.37487488 23.92138977 14.3843689 23.14614868 C14.34451854 18.07153343 13.41889354 14.49143023 11 10 C8.33832683 8.53282779 8.33832683 8.53282779 5.3125 8.0625 C4.31863281 7.84722656 3.32476562 7.63195312 2.30078125 7.41015625 C1.54152344 7.27480469 0.78226563 7.13945313 0 7 C0 4.69 0 2.38 0 0 Z M32 9 C32 23.85 32 38.7 32 54 C50.51659654 54.42857671 50.51659654 54.42857671 65.9375 48.375 C71.04488653 42.49376702 72.70213006 35.41385151 72.38671875 27.74609375 C71.55513971 21.84104261 69.75160449 16.79651743 65.5625 12.5 C58.22483373 8.20478072 51.06260589 7.83477771 42.75 7.875 C41.52796875 7.86919922 41.52796875 7.86919922 40.28125 7.86328125 C36.00581557 7.75096136 36.00581557 7.75096136 32 9 Z M166 26 C163.71917062 31.67743017 161.44056812 37.35574684 159.1640625 43.03491211 C158.38863933 44.9684285 157.61259857 46.90169732 156.8359375 48.8347168 C155.72234831 51.60661643 154.6109533 54.37938681 153.5 57.15234375 C153.15001953 58.02213364 152.80003906 58.89192352 152.43945312 59.78807068 C152.11912109 60.58882523 151.79878906 61.38957977 151.46875 62.21459961 C151.18451172 62.9229747 150.90027344 63.63134979 150.60742188 64.3611908 C149.94207608 65.86498436 149.94207608 65.86498436 150 67 C160.89 67 171.78 67 183 67 C179.56022785 57.62237443 179.56022785 57.62237443 176.12011719 48.24487305 C173.40226145 40.8339524 170.69192896 33.42038618 168 26 C167.34 26 166.68 26 166 26 Z " fill="#FFFFFF" transform="translate(132,606)"/>
<path d="M0 0 C7.45078075 -0.07010043 14.9015265 -0.12311149 22.35256386 -0.15543652 C25.81393872 -0.17096591 29.27508485 -0.19196487 32.73632812 -0.22631836 C36.73309278 -0.26573007 40.72962445 -0.27981405 44.7265625 -0.29296875 C46.55400497 -0.31619453 46.55400497 -0.31619453 48.41836548 -0.33988953 C61.15690255 -0.34233534 75.57361874 1.12372105 85.3203125 10.1484375 C91.25321925 16.54917202 93.8649536 22.26249787 94 31 C93.26843803 40.52385301 90.21500818 47.13425438 83.375 53.75 C77.82820437 58.35826937 71.20855851 61 64 61 C68.78316664 67.07146941 73.69101477 73.01504603 78.71337891 78.88818359 C81.661639 82.35773907 84.50187715 85.89195586 87.28442383 89.49560547 C97.10750903 102.28236774 97.10750903 102.28236774 111 110 C112.175625 110.4125 113.35125 110.825 114.5625 111.25 C115.366875 111.4975 116.17125 111.745 117 112 C117 114.31 117 116.62 117 119 C88.7831236 121.07047635 88.7831236 121.07047635 83.203125 116.890625 C81.13278938 114.32007406 79.49154593 111.81224876 78.00927734 108.86523438 C76.12847589 105.38934587 73.59916483 102.36882177 71.1875 99.25 C70.17695343 97.89168919 69.16785462 96.53230016 68.16015625 95.171875 C64.42650461 90.19367281 60.50000727 85.37795429 56.53979492 80.57910156 C53.35258696 76.70873906 50.33326031 72.77115234 47.43896484 68.67553711 C43.74284393 64.37175736 38.36054993 63.83570371 33 63 C33.09370824 68.60535255 33.19984122 74.21028202 33.31738281 79.81518555 C33.35561339 81.72104486 33.39047655 83.62697487 33.421875 85.53295898 C33.46765422 88.27613553 33.5256273 91.01882788 33.5859375 93.76171875 C33.59748871 94.61086349 33.60903992 95.46000824 33.62094116 96.33488464 C33.72725306 100.61767004 33.91918698 104.1412175 36 108 C39.30866681 110.45830851 43.24820449 110.60624873 47.25 111.125 C48.51328125 111.29257812 49.7765625 111.46015625 51.078125 111.6328125 C52.52445313 111.81457031 52.52445313 111.81457031 54 112 C54 114.31 54 116.62 54 119 C35.85 119 17.7 119 -1 119 C-1 116.69 -1 114.38 -1 112 C3.62 111.01 8.24 110.02 13 109 C14.96962438 99.16553909 15.27893148 89.71190155 15.23046875 79.73828125 C15.22927318 78.09547461 15.22882458 76.45266728 15.2290802 74.80986023 C15.22752683 71.3884139 15.21932443 67.9670739 15.20581055 64.5456543 C15.18878206 60.18167188 15.18499814 55.81780529 15.18575573 51.45379353 C15.18548265 48.06927912 15.17998009 44.68478953 15.17275429 41.30028343 C15.16959548 39.69168472 15.16760681 38.08308323 15.16686058 36.47448158 C15.94467789 23.02586081 15.94467789 23.02586081 12.5625 10.5625 C8.65626557 8.18064974 4.48438769 7.65040737 0 7 C0 4.69 0 2.38 0 0 Z M33 9 C32.9071274 10.41225046 32.88253228 11.82908934 32.88647461 13.24438477 C32.88655014 14.14524307 32.88662567 15.04610138 32.88670349 15.97425842 C32.89186478 16.95341721 32.89702606 17.93257599 32.90234375 18.94140625 C32.9037587 19.93881332 32.90517365 20.9362204 32.90663147 21.96385193 C32.91224886 25.16343124 32.92480429 28.36294169 32.9375 31.5625 C32.94251276 33.72591045 32.94707605 35.88932199 32.95117188 38.05273438 C32.96222393 43.36851325 32.97897896 48.68425171 33 54 C36.04824508 54.0287801 39.0962156 54.04981127 42.14453125 54.06640625 C43.43236511 54.07976013 43.43236511 54.07976013 44.74621582 54.09338379 C54.45191072 54.13299887 61.30000745 52.65758837 68.44140625 45.74609375 C72.61508664 41.07031647 72.92068628 35.07190589 73 29 C72.43286004 22.86948705 71.22066907 17.66495002 67 13 C59.53341347 8.03822989 51.89506747 7.83545011 43.1875 7.875 C42.31673828 7.87113281 41.44597656 7.86726562 40.54882812 7.86328125 C39.30842773 7.86521484 39.30842773 7.86521484 38.04296875 7.8671875 C36.91411255 7.86887939 36.91411255 7.86887939 35.76245117 7.87060547 C33.97319631 7.8089923 33.97319631 7.8089923 33 9 Z " fill="#FFFFFF" transform="translate(883,606)"/>
<path d="M0 0 C26.85774703 -2.98231591 26.85774703 -2.98231591 34.63183594 1.52636719 C38.98860026 5.70861162 41.67841945 10.91187338 44.4453125 16.22412109 C47.13144559 21.02018472 50.59394128 25.20113375 54 29.5 C55.3582177 31.26772813 56.712414 33.03855359 58.0625 34.8125 C58.7225 35.67875 59.3825 36.545 60.0625 37.4375 C63.65636548 42.19067692 67.17077942 47.0018873 70.69116211 51.80957031 C75.89877711 58.90363623 81.22721387 65.90284928 86.58398438 72.88476562 C87.5343457 74.12516602 87.5343457 74.12516602 88.50390625 75.390625 C89.33643921 76.4739209 89.33643921 76.4739209 90.18579102 77.57910156 C92.51124998 80.68221703 94.75439578 83.83861219 97 87 C97.02332525 79.38422812 97.0410168 71.76846001 97.05181217 64.15266037 C97.05699733 60.61510696 97.06401409 57.07757826 97.07543945 53.54003906 C97.08853548 49.45898217 97.09326427 45.37795062 97.09765625 41.296875 C97.10281754 40.04638367 97.10797882 38.79589233 97.11329651 37.50750732 C97.61319602 23.38136739 97.61319602 23.38136739 94 10 C91.38861714 8.74984645 91.38861714 8.74984645 88.375 8.1875 C87.37210937 7.95417969 86.36921875 7.72085938 85.3359375 7.48046875 C84.56507813 7.32191406 83.79421875 7.16335938 83 7 C83 4.69 83 2.38 83 0 C96.86 0 110.72 0 125 0 C125 2.31 125 4.62 125 7 C124.24074219 7.13277344 123.48148437 7.26554688 122.69921875 7.40234375 C121.70535156 7.57894531 120.71148437 7.75554688 119.6875 7.9375 C118.70136719 8.11152344 117.71523438 8.28554688 116.69921875 8.46484375 C113.91810787 8.95746847 113.91810787 8.95746847 111 10 C108.72653764 15.68941992 108.69512103 21.18451371 108.68115234 27.24975586 C108.67110672 28.25539581 108.6610611 29.26103577 108.65071106 30.29714966 C108.61995512 33.60304217 108.6028649 36.90885396 108.5859375 40.21484375 C108.56721977 42.51413158 108.5476459 44.81341258 108.5272522 47.11268616 C108.47598909 53.15092948 108.4363321 59.18919505 108.39910889 65.22753906 C108.35903282 71.39458699 108.30795689 77.5615428 108.2578125 83.72851562 C108.16112208 95.81894565 108.07669519 107.90942776 108 120 C106.24350926 120.08862514 104.48572485 120.15185499 102.7277832 120.2043457 C101.74912796 120.24227737 100.77047272 120.28020905 99.76216125 120.31929016 C96.4978279 119.94195176 95.50639774 119.14790495 93.35546875 116.73046875 C92.2633122 115.24201923 91.20893868 113.72533969 90.1875 112.1875 C89.60548828 111.37796875 89.02347656 110.5684375 88.42382812 109.734375 C87.20071327 108.02910854 85.99238993 106.31314509 84.79833984 104.58740234 C82.50932652 101.29403237 80.13013277 98.07306414 77.7421875 94.85107422 C76.57744865 93.27926437 75.41730842 91.70403676 74.26171875 90.12548828 C69.5907617 83.74612345 64.76648415 77.4969438 59.89404297 71.27075195 C56.05328826 66.36191916 52.27927147 61.41091591 48.55859375 56.41015625 C46.40527291 53.52668118 44.22164528 50.66698591 42.03515625 47.80859375 C40.96370361 46.40734253 40.96370361 46.40734253 39.87060547 44.9777832 C38.44272918 43.11189924 37.01342465 41.24710716 35.58251953 39.38354492 C34.91978027 38.51705322 34.25704102 37.65056152 33.57421875 36.7578125 C32.98213623 35.9858252 32.39005371 35.21383789 31.7800293 34.41845703 C29.75830875 31.67162343 27.87325256 28.84965038 26 26 C25.97667126 34.12004071 25.95898148 42.24006706 25.94818783 50.36013317 C25.94300341 54.13194666 25.93598806 57.90373696 25.92456055 61.67553711 C25.91357178 65.32600947 25.90768986 68.97645975 25.90512276 72.6269474 C25.90329695 74.00895853 25.89973286 75.39096866 25.89426994 76.7729702 C24.71605043 93.84184187 24.71605043 93.84184187 30 109 C33.60115071 110.38301209 37.21718792 111.26784282 41 112 C41 114.31 41 116.62 41 119 C26.81 119 12.62 119 -2 119 C-2 116.69 -2 114.38 -2 112 C-1.16855469 111.81824219 -0.33710938 111.63648438 0.51953125 111.44921875 C1.60621094 111.19785156 2.69289063 110.94648437 3.8125 110.6875 C4.89144531 110.44386719 5.97039062 110.20023438 7.08203125 109.94921875 C10.00199677 108.99935045 11.23810472 108.464312 13 106 C14.38920444 102.07050483 14.15515686 97.96756402 14.16113281 93.85424805 C14.16609772 93.03585449 14.17106262 92.21746094 14.17617798 91.37426758 C14.19076829 88.67007604 14.19759643 85.96594317 14.203125 83.26171875 C14.20887909 81.37848408 14.21463679 79.49524942 14.22039795 77.61201477 C14.23089907 73.66362231 14.23674753 69.71525016 14.24023438 65.7668457 C14.24571682 60.71629311 14.26974331 55.66601042 14.29820633 50.61554241 C14.31686271 46.72497278 14.32203991 42.83446777 14.32357025 38.94385719 C14.32659059 37.08239072 14.33459818 35.22092522 14.34775543 33.35950279 C14.36487856 30.75077356 14.36292049 28.14269873 14.35644531 25.53393555 C14.3656601 24.77057388 14.37487488 24.00721222 14.3843689 23.22071838 C14.34483485 18.11639408 13.43754661 14.51610293 11 10 C8.33832683 8.53282779 8.33832683 8.53282779 5.3125 8.0625 C4.31863281 7.84722656 3.32476562 7.63195312 2.30078125 7.41015625 C1.54152344 7.27480469 0.78226562 7.13945313 0 7 C0 4.69 0 2.38 0 0 Z " fill="#FFFFFF" transform="translate(370,606)"/>
<path d="M0 0 C7.97235617 -0.07004999 15.94458001 -0.12308645 23.91716957 -0.15543652 C27.62067293 -0.17097659 31.32396306 -0.1919963 35.02734375 -0.22631836 C38.61300066 -0.25933477 42.19845477 -0.2769402 45.78425217 -0.28463173 C47.79240365 -0.29273018 49.80047555 -0.31607866 51.8085022 -0.33988953 C68.92443794 -0.34296697 83.4213509 3.56370719 97 14 C97.9590625 14.70962891 97.9590625 14.70962891 98.9375 15.43359375 C109.47001493 23.73265128 115.94566771 36.9180831 118 50 C119.61848314 69.54519589 117.03888904 85.25447608 104.3125 100.6875 C94.11383043 111.6826371 78.80429223 117.86379959 64 119 C58.85382597 119.13433196 53.70981708 119.11668891 48.5625 119.09765625 C47.07177783 119.09578823 45.58105504 119.09436614 44.09033203 119.09336853 C40.19088 119.08957356 36.29146596 119.0797695 32.39202881 119.06866455 C28.40328485 119.05838507 24.41453467 119.05385698 20.42578125 119.04882812 C12.61717029 119.03814416 4.80859049 119.02110456 -3 119 C-3 116.69 -3 114.38 -3 112 C-1.77023437 111.83564453 -1.77023437 111.83564453 -0.515625 111.66796875 C0.56203125 111.50941406 1.6396875 111.35085938 2.75 111.1875 C3.81734375 111.03667969 4.8846875 110.88585937 5.984375 110.73046875 C9.19936239 109.95170885 10.61253901 109.24587838 13 107 C16.10285091 98.14039498 15.29422854 87.79649477 15.265625 78.5 C15.26697657 76.93164002 15.26892118 75.36328044 15.27142334 73.79492188 C15.27435148 70.52730269 15.27015213 67.25979375 15.26074219 63.9921875 C15.24934905 59.83694681 15.25592102 55.68196464 15.26788712 51.5267334 C15.27516862 48.29392606 15.27278916 45.06117843 15.26763153 41.82836914 C15.26631236 40.2976071 15.2678808 38.76683935 15.27259064 37.23608398 C15.48770647 23.94729555 15.48770647 23.94729555 13 11 C9.99559979 8.99706653 8.29006055 8.50728374 4.8125 7.875 C3.91144531 7.70742188 3.01039063 7.53984375 2.08203125 7.3671875 C1.39496094 7.24601563 0.70789063 7.12484375 0 7 C0 4.69 0 2.38 0 0 Z M33 9 C32.90727867 20.63084971 32.83622397 32.26161134 32.79275131 43.89275551 C32.77188552 49.29370818 32.74358593 54.6944078 32.69824219 60.09521484 C32.65474902 65.30828714 32.63085531 70.52111618 32.62049103 75.73435593 C32.61310593 77.72227177 32.59868451 79.71017445 32.57707977 81.6979866 C32.54799982 84.48465898 32.54404594 87.27032897 32.54589844 90.05712891 C32.53151733 90.87712372 32.51713623 91.69711853 32.50231934 92.54196167 C32.54028401 97.82739468 33.49914655 100.80763522 37 105 C45.11810446 111.25770552 54.16384624 110.65605711 64 110 C70.83482972 108.89141331 76.4426991 106.06154704 82 102 C82.82628906 101.401875 83.65257812 100.80375 84.50390625 100.1875 C93.75617653 92.07909412 96.71800046 79.54455127 97.8125 67.8125 C98.59117742 52.22306031 96.17538637 34.46623685 85.625 22.25 C84.75875 21.5075 83.8925 20.765 83 20 C82.28263672 19.28070312 82.28263672 19.28070312 81.55078125 18.546875 C73.15061188 10.49247531 63.21795438 8.35398426 51.92578125 8.56054688 C50.53383698 8.60229538 49.14190987 8.64461973 47.75 8.6875 C46.31123735 8.71265319 44.87243157 8.7354538 43.43359375 8.75585938 C39.95481286 8.81021053 36.47769547 8.89607843 33 9 Z " fill="#FFFFFF" transform="translate(508,606)"/>
<path d="M0 0 C1.06476563 0.45503906 2.12953125 0.91007813 3.2265625 1.37890625 C5.84262026 2.54123065 8.42859284 3.74263858 11 5 C11.99 2.36 12.98 -0.28 14 -3 C15.98 -3 17.96 -3 20 -3 C20.10269894 6.01468517 20.04212188 14.99548599 19.5625 24 C19.52326416 24.78294434 19.48402832 25.56588867 19.44360352 26.37255859 C19.12394681 31.87605319 19.12394681 31.87605319 18 33 C15.32941149 33.14115161 12.67567762 33.04247107 10 33 C9.85304688 32.2265625 9.70609375 31.453125 9.5546875 30.65625 C7.61437887 21.64608119 4.8690789 15.34451496 -2.9375 10.125 C-11.68730991 4.81195194 -23.99372352 4.29446105 -33.82421875 6.6875 C-36.05431852 7.6215732 -37.9766613 8.68007148 -40 10 C-40.68191406 10.40089844 -41.36382812 10.80179688 -42.06640625 11.21484375 C-51.65254848 17.49040175 -56.24542501 27.99336352 -58.6171875 38.81640625 C-61.71783197 55.78500169 -61.96178042 76.07653033 -52.65234375 91.1875 C-46.66047053 99.6240575 -40.23333098 104.19166725 -30.25 106.6875 C-19.00607285 107.76864684 -7.12431561 107.52445249 2.125 100.125 C6.18678297 96.08337477 8.13411419 92.2523531 8.375 86.5 C8.22928231 82.38521011 7.29438714 79.48406936 5 76 C1.54941314 73.69960876 -0.94095502 73.5261725 -5 73 C-5.33 72.67 -5.66 72.34 -6 72 C-6 70.02 -6 68.04 -6 66 C8.52 66 23.04 66 38 66 C38 67.98 38 69.96 38 72 C37.37351562 72.18175781 36.74703125 72.36351562 36.1015625 72.55078125 C35.28429687 72.80214844 34.46703125 73.05351563 33.625 73.3125 C32.81289062 73.55613281 32.00078125 73.79976562 31.1640625 74.05078125 C28.66815371 74.91368185 28.66815371 74.91368185 27 78 C26.63201307 80.71075544 26.63201307 80.71075544 26.5859375 83.76171875 C26.54726562 84.87998047 26.50859375 85.99824219 26.46875 87.15039062 C26.4378125 88.31763672 26.406875 89.48488281 26.375 90.6875 C26.33632812 91.86634766 26.29765625 93.04519531 26.2578125 94.25976562 C26.16345609 97.17301977 26.07786839 100.08626607 26 103 C25.33500488 103.08636719 24.67000977 103.17273438 23.98486328 103.26171875 C16.5988029 104.38908522 10.55077686 106.7137526 3.875 110 C-11.59855938 117.5533414 -29.37794018 120.26880223 -46.23828125 115.09765625 C-60.15725958 109.5655022 -70.36062094 101.58238825 -77 88 C-83.85997241 71.66359134 -85.18719154 50.64117831 -79.1953125 33.796875 C-78.80085938 32.87390625 -78.40640625 31.9509375 -78 31 C-77.62617187 30.09765625 -77.25234375 29.1953125 -76.8671875 28.265625 C-70.42947932 14.19646144 -60.09681789 4.98706551 -46 -1 C-45.19433594 -1.34289062 -44.38867188 -1.68578125 -43.55859375 -2.0390625 C-30.16271667 -6.64053553 -12.85567733 -5.51209179 0 0 Z " fill="#FFFFFF" transform="translate(82,609)"/>
<path d="M0 0 C17.49 0 34.98 0 53 0 C53 2.31 53 4.62 53 7 C52.40832031 7.01417969 51.81664062 7.02835938 51.20703125 7.04296875 C46.74434335 7.31233164 44.56924796 7.53748603 41 10.4375 C34.97427484 18.15796035 36.83161126 30.84193517 36.796875 40.21875 C36.78832489 42.04835266 36.78832489 42.04835266 36.77960205 43.91491699 C36.77021921 46.47630971 36.76364508 49.03771413 36.75976562 51.59912109 C36.75002635 55.48947259 36.71892429 59.37930248 36.6875 63.26953125 C36.68097128 65.77343441 36.6757203 68.27734129 36.671875 70.78125 C36.6595282 71.92847534 36.6471814 73.07570068 36.63446045 74.25769043 C36.66028962 83.7382109 37.3707818 94.65410956 44 102 C50.78405006 107.61927117 59.06476135 109.53352194 67.80078125 109.25 C75.40610782 108.38545133 83.67718071 106.90633691 89 101 C97.23892971 89.21436526 96.30236145 74.18638863 96.20581055 60.43603516 C96.18762581 57.76845598 96.18530128 55.10122841 96.18554688 52.43359375 C96.16893766 44.12543344 96.0256697 35.83545644 95.56640625 27.5390625 C95.53000534 26.85326111 95.49360443 26.16745972 95.45610046 25.46087646 C95.06887805 19.27559589 94.54423061 13.39456999 89.875 9 C85.95945678 7.63807192 82.12201254 7.26043217 78 7 C78 4.69 78 2.38 78 0 C93.18 0 108.36 0 124 0 C124 2.31 124 4.62 124 7 C123.24074219 7.09796875 122.48148438 7.1959375 121.69921875 7.296875 C120.70535156 7.44640625 119.71148438 7.5959375 118.6875 7.75 C117.70136719 7.88921875 116.71523438 8.0284375 115.69921875 8.171875 C112.97452625 8.79740464 112.97452625 8.79740464 111.26953125 10.578125 C107.51485373 17.74089441 107.69369662 25.36219795 107.65625 33.25 C107.6416272 34.42151611 107.62700439 35.59303223 107.61193848 36.80004883 C107.56565401 40.5333313 107.53137341 44.26656434 107.5 48 C107.07782458 97.66731409 107.07782458 97.66731409 94.87109375 110.3203125 C85.48091199 118.749912 74.36659109 120.54372491 62.0625 120.375 C61.01143066 120.36702393 59.96036133 120.35904785 58.87744141 120.35083008 C46.23770991 120.1184316 35.50133733 117.80714194 25.89453125 109.08203125 C16.99903466 99.30615561 16.70353539 86.43983401 16.62109375 73.9453125 C16.60487161 72.59446058 16.58768691 71.24361992 16.56959534 69.89279175 C16.52421432 66.35603113 16.48927231 62.81925392 16.45739746 59.28234863 C16.40527389 53.63093799 16.33950254 47.97969724 16.26918221 42.3284874 C16.24672403 40.37513295 16.23050308 38.42170992 16.21446228 36.46829224 C16.38465236 23.71896308 16.38465236 23.71896308 13.625 11.4375 C9.65821786 7.75405944 5.25843858 7.52584386 0 7 C0 4.69 0 2.38 0 0 Z " fill="#FFFFFF" transform="translate(748,606)"/>
<path d="M0 0 C29.37 0 58.74 0 89 0 C89.66059315 3.96355893 90.15366512 7.44615289 90.31640625 11.3984375 C90.35830078 12.37167969 90.40019531 13.34492187 90.44335938 14.34765625 C90.48267578 15.34667969 90.52199219 16.34570312 90.5625 17.375 C90.60568359 18.39722656 90.64886719 19.41945313 90.69335938 20.47265625 C90.79887792 22.98165288 90.90099213 25.49073943 91 28 C88.69 28 86.38 28 84 28 C83.76925781 27.26394531 83.53851562 26.52789063 83.30078125 25.76953125 C80.71453697 17.84709884 80.71453697 17.84709884 75 12 C66.45509394 8.18068593 58.13210153 8.65945979 48.9375 8.8125 C41.0484375 8.9053125 41.0484375 8.9053125 33 9 C32.67 23.52 32.34 38.04 32 53 C45.34381303 51.80585864 45.34381303 51.80585864 56.3125 46.3125 C58.71008502 43.02692053 59.20445107 39.97774466 60 36 C61.98 36 63.96 36 66 36 C66 49.86 66 63.72 66 78 C64.02 78 62.04 78 60 78 C59.84144531 77.32453125 59.68289063 76.6490625 59.51953125 75.953125 C58.04447288 70.24265017 58.04447288 70.24265017 54.6875 65.5 C49.5565722 62.63622634 44.41157018 61.63926399 38.625 60.875 C37.37976563 60.70742188 36.13453125 60.53984375 34.8515625 60.3671875 C33.44003906 60.18542969 33.44003906 60.18542969 32 60 C32.06914016 65.28406553 32.15723338 70.56735956 32.26245117 75.85083008 C32.29558413 77.64599 32.32365187 79.44125117 32.34643555 81.23657227 C32.38019664 83.82612012 32.43252125 86.41474971 32.48828125 89.00390625 C32.49467117 89.79898087 32.5010611 90.59405548 32.50764465 91.41322327 C32.64372575 96.63986576 33.53067578 100.36391989 36 105 C42.42055363 110.42180084 49.31576333 110.18117847 57.3125 110.1875 C58.11623047 110.19974609 58.91996094 110.21199219 59.74804688 110.22460938 C67.56990355 110.24348755 75.17691235 109.51495335 81.50390625 104.546875 C84.18616938 101.77356899 85.55928033 98.5350992 87 95 C87.2990625 94.31679688 87.598125 93.63359375 87.90625 92.9296875 C88.62148373 91.29392148 89.31334683 89.6479676 90 88 C92.31 88 94.62 88 97 88 C96.73850707 91.93305157 96.47185416 95.86571601 96.20043945 99.7980957 C96.06383896 101.79294644 95.93131328 103.78807485 95.79882812 105.78320312 C95.71181641 107.03681641 95.62480469 108.29042969 95.53515625 109.58203125 C95.456604 110.73936768 95.37805176 111.8967041 95.29711914 113.08911133 C95 116 95 116 94 119 C62.32 119 30.64 119 -2 119 C-2 116.69 -2 114.38 -2 112 C-1.09636719 111.85304688 -0.19273437 111.70609375 0.73828125 111.5546875 C1.91777344 111.33039063 3.09726562 111.10609375 4.3125 110.875 C6.07013672 110.56175781 6.07013672 110.56175781 7.86328125 110.2421875 C11.16093123 109.28282294 11.16093123 109.28282294 12.67376709 106.46485901 C14.29458776 102.23037271 14.40855091 98.80661615 14.35644531 94.32006836 C14.35848969 93.46890945 14.36053406 92.61775055 14.36264038 91.74079895 C14.36563716 88.94025867 14.34720433 86.14031363 14.328125 83.33984375 C14.3250653 81.38741705 14.32319078 79.43498816 14.32244873 77.4825592 C14.31785257 73.39640917 14.30345263 69.31045697 14.28125 65.22436523 C14.25294964 59.98991793 14.24203557 54.75562613 14.2375679 49.52110958 C14.2334088 45.49164785 14.22358748 41.46221742 14.21169281 37.43277168 C14.20600118 35.50268363 14.20123884 33.5725926 14.19742584 31.64249992 C14.1905415 28.94512543 14.17689913 26.24787253 14.16113281 23.55053711 C14.16001495 22.75507477 14.15889709 21.95961243 14.15774536 21.14004517 C14.12742924 17.21843844 13.77645577 13.88227886 13 10 C8.71 9.01 4.42 8.02 0 7 C0 4.69 0 2.38 0 0 Z " fill="#FFFFFF" transform="translate(641,606)"/>
<path d="M0 0 C0.99 -2.31 1.98 -4.62 3 -7 C4.98 -7 6.96 -7 9 -7 C8.86010966 -3.1455938 8.71201994 0.70845629 8.5625 4.5625 C8.52318359 5.64853516 8.48386719 6.73457031 8.44335938 7.85351562 C8.22798645 13.30410746 7.91840778 18.62075441 7 24 C4.69 24 2.38 24 0 24 C-0.13535156 23.29875 -0.27070312 22.5975 -0.41015625 21.875 C-2.24870246 13.77218554 -5.02599167 8.18661514 -12.15234375 3.62109375 C-19.97172124 -0.11295174 -29.37512058 -0.4406166 -37.71484375 1.6953125 C-39.98953163 2.62074108 -41.94299713 3.66211195 -44 5 C-44.63421875 5.4125 -45.2684375 5.825 -45.921875 6.25 C-53.96693969 12.30098882 -57.21205801 22.43142771 -59 32 C-60.80243973 45.22782215 -60.89000323 60.13388333 -54 72 C-53.4225 73.051875 -52.845 74.10375 -52.25 75.1875 C-46.35929139 82.55088576 -39.60379166 85.6618974 -30.375 86.8125 C-22.45153324 87.35385487 -14.68746123 86.06930257 -7.9375 81.6875 C-4.7255347 78.74889345 -3.23693626 77.17465987 -2 73 C-1.87560103 69.23017031 -1.95553031 65.63566772 -3 62 C-6.32438909 58.73967837 -9.43982113 58.43847874 -14 58 C-14 56.02 -14 54.04 -14 52 C-1.46 52 11.08 52 24 52 C24 53.65 24 55.3 24 57 C23.44570313 57.14695312 22.89140625 57.29390625 22.3203125 57.4453125 C21.59585938 57.66960937 20.87140625 57.89390625 20.125 58.125 C19.04605469 58.43824219 19.04605469 58.43824219 17.9453125 58.7578125 C14.95414809 60.66783314 14.77100186 62.57675173 14 66 C13.65167425 69.12231632 13.49513482 72.23647795 13.375 75.375 C13.33632813 76.20644531 13.29765625 77.03789062 13.2578125 77.89453125 C13.16425754 79.92935156 13.08107287 81.96464416 13 84 C11.72125 84.165 10.4425 84.33 9.125 84.5 C3.68390811 85.55411467 -1.00788515 87.6827846 -6 90 C-20.19599555 96.53544911 -34.28362789 98.22524824 -49.4453125 93.1875 C-61.07928766 88.32312014 -69.5448346 81.26168545 -74.8984375 69.77734375 C-81.06124451 54.23920266 -81.09626909 35.59770807 -74.81640625 20.07421875 C-67.84608379 6.11382788 -57.94462506 -1.49029462 -43.703125 -6.8671875 C-29.17592454 -10.97759693 -12.49411128 -8.13570037 0 0 Z " fill="#FFFFFF" transform="translate(526,239)"/>
<path d="M0 0 C4.37487331 -0.08738991 8.74952078 -0.140524 13.125 -0.1875 C14.3625 -0.21263672 15.6 -0.23777344 16.875 -0.26367188 C18.07382812 -0.27333984 19.27265625 -0.28300781 20.5078125 -0.29296875 C21.60754395 -0.3086792 22.70727539 -0.32438965 23.84033203 -0.34057617 C27.49355736 0.05319985 29.8710114 1.10145809 33 3 C35.14415865 6.606085 35.5068075 9.86107206 35 14 C33.125 17.125 33.125 17.125 31 20 C30.31255452 21.32273993 29.64113134 22.65420179 29 24 C30.86092003 26.73901063 32.74117994 29.46419984 34.625 32.1875 C35.14707031 32.95642578 35.66914063 33.72535156 36.20703125 34.51757812 C40.87714184 41.23446558 45.42197838 45.57184736 53 49 C53 49.66 53 50.32 53 51 C41.16922052 51.77948035 41.16922052 51.77948035 37.1875 49.125 C36.465625 48.09375 35.74375 47.0625 35 46 C33.68847361 44.43668268 32.375865 42.87427299 31.0625 41.3125 C27.68260625 37.09712689 25.08320376 32.78381345 22.71484375 27.93359375 C20.64445068 25.17920225 20.64445068 25.17920225 14 25 C14.33 32.59 14.66 40.18 15 48 C16.65 48 18.3 48 20 48 C20.33 48.99 20.66 49.98 21 51 C14.07 51 7.14 51 0 51 C0.33 50.01 0.66 49.02 1 48 C3.475 47.505 3.475 47.505 6 47 C6 32.81 6 18.62 6 4 C4.02 3.34 2.04 2.68 0 2 C0 1.34 0 0.68 0 0 Z M16 2 C13.43219529 5.8415976 13.77311118 9.8139175 13.875 14.25 C13.88402344 14.99507812 13.89304687 15.74015625 13.90234375 16.5078125 C13.92581642 18.33868059 13.96168475 20.16938238 14 22 C18.93747246 23.26841965 21.45773062 22.35848602 26 20 C27.98219664 16.03560672 27.5466314 11.31093399 27 7 C25.1009044 3.68169647 25.1009044 3.68169647 22 2 C18.78938212 1.58109782 18.78938212 1.58109782 16 2 Z " fill="#FFFFFF" transform="translate(424,782)"/>
<path d="M0 0 C11.22 0 22.44 0 34 0 C34 3.96 34 7.92 34 12 C33.34 12 32.68 12 32 12 C31.731875 10.865625 31.46375 9.73125 31.1875 8.5625 C30.795625 7.386875 30.40375 6.21125 30 5 C24.83608171 3.2786939 19.40708764 3.94646448 14 4 C14 10.27 14 16.54 14 23 C21.43120209 22.80602487 21.43120209 22.80602487 28 20 C28.33 19.01 28.66 18.02 29 17 C29.66 17 30.32 17 31 17 C31 21.95 31 26.9 31 32 C30.34 32 29.68 32 29 32 C28.505 29.525 28.505 29.525 28 27 C21.07 26.505 21.07 26.505 14 26 C14.33 32.6 14.66 39.2 15 46 C19.67419867 47.55806622 23.50921741 47.49692753 28.1875 45.9375 C31.87557032 43.39682934 33.04063009 40.99410021 35 37 C35.66 37 36.32 37 37 37 C36.85970581 39.1462026 36.71261836 41.29196218 36.5625 43.4375 C36.48128906 44.63246094 36.40007813 45.82742188 36.31640625 47.05859375 C36 50 36 50 35 51 C32.40640678 51.08851529 29.83960309 51.11525945 27.24609375 51.09765625 C26.47064713 51.0962413 25.6952005 51.09482635 24.89625549 51.09336853 C22.40996506 51.08775345 19.9237634 51.07519846 17.4375 51.0625 C15.75586067 51.05748694 14.07421994 51.0529237 12.39257812 51.04882812 C8.26168434 51.03777913 4.13085724 51.02050445 0 51 C0.33 50.01 0.66 49.02 1 48 C2.98 47.505 2.98 47.505 5 47 C5 32.48 5 17.96 5 3 C3.35 2.67 1.7 2.34 0 2 C0 1.34 0 0.68 0 0 Z " fill="#FFFFFF" transform="translate(604,782)"/>
<path d="M0 0 C11.22 0 22.44 0 34 0 C34.495 5.94 34.495 5.94 35 12 C32 11 32 11 30.4375 8 C29.963125 7.01 29.48875 6.02 29 5 C26.37670316 3.68835158 24.36301375 3.86737154 21.4375 3.875 C20.44621094 3.87242187 19.45492188 3.86984375 18.43359375 3.8671875 C16.05187652 3.72561569 16.05187652 3.72561569 15 5 C14.84417697 6.34015221 14.74955858 7.68758903 14.68359375 9.03515625 C14.64169922 9.84404297 14.59980469 10.65292969 14.55664062 11.48632812 C14.51732422 12.33646484 14.47800781 13.18660156 14.4375 14.0625 C14.39431641 14.91650391 14.35113281 15.77050781 14.30664062 16.65039062 C14.20023298 18.76672037 14.09958269 20.88333813 14 23 C15.77155654 22.88570603 17.54226229 22.75816963 19.3125 22.625 C20.29863281 22.55539062 21.28476562 22.48578125 22.30078125 22.4140625 C25.21528433 22.16134528 25.21528433 22.16134528 28 20 C28.33 19.01 28.66 18.02 29 17 C29.66 17 30.32 17 31 17 C31 21.95 31 26.9 31 32 C30.34 32 29.68 32 29 32 C28.505 29.525 28.505 29.525 28 27 C21.07 26.505 21.07 26.505 14 26 C14.33 32.6 14.66 39.2 15 46 C19.38511463 47.46170488 23.30682018 47.50025768 27.75 46.1875 C32.02336747 43.93211161 33.40932394 41.52730879 35 37 C35.66 37 36.32 37 37 37 C36.85970581 39.1462026 36.71261836 41.29196218 36.5625 43.4375 C36.48128906 44.63246094 36.40007812 45.82742188 36.31640625 47.05859375 C36 50 36 50 35 51 C32.40640678 51.08851529 29.83960309 51.11525945 27.24609375 51.09765625 C26.47064713 51.0962413 25.6952005 51.09482635 24.89625549 51.09336853 C22.40996506 51.08775345 19.9237634 51.07519846 17.4375 51.0625 C15.75586067 51.05748694 14.07421994 51.0529237 12.39257812 51.04882812 C8.26168434 51.03777913 4.13085724 51.02050445 0 51 C0.33 50.01 0.66 49.02 1 48 C2.65 48 4.3 48 6 48 C6.0247279 42.23421542 6.04287328 36.46846175 6.05493164 30.70263672 C6.05995887 28.74136823 6.06678157 26.78010348 6.07543945 24.81884766 C6.08757545 21.99901403 6.09324444 19.17922998 6.09765625 16.359375 C6.10281754 15.48319519 6.10797882 14.60701538 6.11329651 13.70428467 C6.11340981 12.47346161 6.11340981 12.47346161 6.11352539 11.21777344 C6.115746 10.49829529 6.11796661 9.77881714 6.12025452 9.03753662 C5.99505875 6.91627776 5.57918565 5.04033713 5 3 C3.35 2.67 1.7 2.34 0 2 C0 1.34 0 0.68 0 0 Z " fill="#FFFFFF" transform="translate(382,782)"/>
<path d="M0 0 C6.6 0 13.2 0 20 0 C20 0.66 20 1.32 20 2 C18.68 2.33 17.36 2.66 16 3 C16.58628019 7.75996136 17.9561504 11.57368923 19.94140625 15.9296875 C20.22853989 16.56488312 20.51567352 17.20007874 20.81150818 17.85452271 C21.72189079 19.86443181 22.64200189 21.86970656 23.5625 23.875 C24.18489523 25.24449625 24.80664666 26.61428528 25.42773438 27.984375 C26.94439226 31.32633508 28.46980249 34.66421384 30 38 C33.10197248 31.29611786 36.07286559 24.57241741 38.75 17.6875 C39.05292969 16.92888672 39.35585938 16.17027344 39.66796875 15.38867188 C41.27793103 11.26359074 42.46487338 7.42887692 43 3 C41.02 2.67 39.04 2.34 37 2 C37 1.34 37 0.68 37 0 C42.94 0 48.88 0 55 0 C55 0.66 55 1.32 55 2 C54.113125 2.28875 53.22625 2.5775 52.3125 2.875 C43.47083057 8.54701435 40.33927941 24.09317343 36.6875 33.625 C36.03625991 35.31397667 35.38457073 37.00278026 34.73242188 38.69140625 C33.14976418 42.79229398 31.57319948 46.89547509 30 51 C29.01 51 28.02 51 27 51 C24.97410208 46.83578123 22.95406297 42.66874572 20.9375 38.5 C20.4907341 37.57728302 20.4907341 37.57728302 20.03494263 36.63592529 C15.9522651 28.19372235 12.02816014 19.71578518 8.46484375 11.0390625 C6.95723065 7.91126786 5.36598882 5.53663518 3 3 C2.01 2.67 1.02 2.34 0 2 C0 1.34 0 0.68 0 0 Z " fill="#FFFFFF" transform="translate(468,782)"/>
<path d="M0 0 C2 2 2 2 2.1953125 4.6015625 C2.17210937 5.59929688 2.14890625 6.59703125 2.125 7.625 C2.10695313 8.62789062 2.08890625 9.63078125 2.0703125 10.6640625 C2.04710937 11.43492187 2.02390625 12.20578125 2 13 C1.34 13 0.68 13 0 13 C-1.04296875 11.35546875 -1.04296875 11.35546875 -2.1875 9.1875 C-4.82267602 4.85937659 -6.9787918 3.31703822 -12 2 C-18.26005333 1.09986161 -23.11881972 1.6270751 -28.3046875 5.40625 C-32.25417181 9.11912926 -33.7490885 12.71872421 -34.33984375 18.08984375 C-34.59146828 26.7155328 -33.64326851 34.00159085 -28.1875 40.875 C-24.17037032 45.11858552 -20.36795874 47.12296955 -14.5 47.4375 C-9.95886934 47.24701633 -7.42364816 46.11240742 -4 43 C-2.57081981 40.91974883 -1.2900017 38.82306977 -0.078125 36.609375 C0.27765625 36.07828125 0.6334375 35.5471875 1 35 C1.66 35 2.32 35 3 35 C3.32421053 44.56421053 3.32421053 44.56421053 1 48 C-8.00168385 51.25251681 -19.45246623 51.66047732 -28.5625 48.5625 C-34.92722681 45.44530445 -39.44021644 40.63454328 -42.23046875 34.1328125 C-44.70640713 25.80760484 -44.26458145 18.44528952 -40.3125 10.6875 C-29.74848562 -1.58959779 -15.45990889 -5.15330296 0 0 Z " fill="#FFFFFF" transform="translate(595,783)"/>
<path d="M0 0 C0.33 3.96 0.66 7.92 1 12 C0.01 12 -0.98 12 -2 12 C-2.20753906 11.45730469 -2.41507812 10.91460938 -2.62890625 10.35546875 C-4.2767453 6.52889689 -5.56640869 3.72602401 -9.4375 1.875 C-13.29209918 0.92825634 -14.6349128 1.02053694 -18 3 C-19.83132306 4.83132306 -19.29047035 7.3519471 -19.42578125 9.796875 C-18.61096741 14.01297598 -15.84850315 16.41809602 -12.4140625 18.7734375 C-11.03347656 19.56621094 -11.03347656 19.56621094 -9.625 20.375 C-3.82192098 23.95149656 0.7925637 27.37769111 3 34 C3 38.3362609 2.64270562 42.17425004 -0.3671875 45.51953125 C-5.14656252 49.64501168 -8.72909707 50.15501637 -14.875 50.1875 C-16.08929688 50.20167969 -17.30359375 50.21585938 -18.5546875 50.23046875 C-21.90286466 50.00649772 -24.10859716 49.69109723 -27 48 C-28.40942792 44.92240859 -28.10228088 41.59159364 -28.0625 38.25 C-28.05347656 37.26515625 -28.04445313 36.2803125 -28.03515625 35.265625 C-28.02355469 34.51796875 -28.01195312 33.7703125 -28 33 C-27.34 33 -26.68 33 -26 33 C-25.67386719 33.68707031 -25.34773438 34.37414062 -25.01171875 35.08203125 C-24.35623047 36.43361328 -24.35623047 36.43361328 -23.6875 37.8125 C-23.25824219 38.70582031 -22.82898438 39.59914063 -22.38671875 40.51953125 C-20.70849588 43.52142286 -19.48889696 45.57198034 -16.09765625 46.546875 C-10.98453587 47.09662413 -10.98453587 47.09662413 -6 46 C-5.01116348 41.59518278 -4.57315339 37.99829879 -6.58984375 33.82421875 C-9.83103172 29.63132461 -14.6574628 26.94051804 -19 24 C-25.89428571 18.87 -25.89428571 18.87 -27 15 C-27.45454925 10.30299108 -27.4551419 7.96490083 -25.4375 3.6875 C-18.79235727 -3.63919583 -8.73749042 -3.67894334 0 0 Z " fill="#FFFFFF" transform="translate(374,783)"/>
<path d="M0 0 C6.6 0 13.2 0 20 0 C20 0.66 20 1.32 20 2 C18.35 2.66 16.7 3.32 15 4 C15 18.19 15 32.38 15 47 C16.65 47.66 18.3 48.32 20 49 C20 49.66 20 50.32 20 51 C13.4 51 6.8 51 0 51 C0.33 50.01 0.66 49.02 1 48 C3.0625 47.3125 3.0625 47.3125 5 47 C6.30864412 43.0285835 6.14389834 39.00577038 6.1328125 34.875 C6.13376923 34.09108887 6.13472595 33.30717773 6.13571167 32.49951172 C6.13639088 30.84537679 6.13455469 29.19123916 6.13037109 27.53710938 C6.12501917 25.00905353 6.13032485 22.48117534 6.13671875 19.953125 C6.13605792 18.34374961 6.13477666 16.73437433 6.1328125 15.125 C6.13483673 14.3707373 6.13686096 13.61647461 6.13894653 12.83935547 C6.12372564 9.42287199 6.07590397 6.26510679 5 3 C3.35 2.67 1.7 2.34 0 2 C0 1.34 0 0.68 0 0 Z " fill="#FFFFFF" transform="translate(525,782)"/>
</svg>