<?xml version="1.0" encoding="UTF-8" standalone="no"?>
<!DOCTYPE svg PUBLIC "-//W3C//DTD SVG 1.1//EN" "http://www.w3.org/Graphics/SVG/1.1/DTD/svg11.dtd">
<svg width="100%" height="100%" viewBox="0 0 1248 1248" version="1.1" xmlns="http://www.w3.org/2000/svg" xmlns:xlink="http://www.w3.org/1999/xlink" xml:space="preserve" xmlns:serif="http://www.serif.com/" style="fill-rule:evenodd;clip-rule:evenodd;stroke-linejoin:round;stroke-miterlimit:2;">
    <g transform="matrix(1,0,0,1,-2062.81,811.041)">
        <g transform="matrix(9.9276,0,0,9.9276,1079.38,-1978.86)">
            <g transform="matrix(1,0,0,1,162.006,121.402)">
                <path d="M0,117.222C-9.723,108.9 -19.872,99.609 -30.214,89.28C-40.728,78.778 -50.168,68.475 -58.611,58.611C-51.718,48.643 -42.575,37.093 -30.66,25.366C-19.864,14.739 -9.285,6.42 0,0C10.061,8.401 20.672,17.988 31.494,28.868C41.648,39.076 50.656,49.085 58.611,58.611C52.176,68.213 43.471,79.519 31.932,91.022C20.603,102.315 9.481,110.868 0,117.222" style="fill:none;fill-rule:nonzero;stroke:black;stroke-width:0.1px;"/>
            </g>
            <g transform="matrix(1,0,0,1,161.873,120.671)">
                <path d="M0,119.552C-9.917,111.064 -20.267,101.589 -30.815,91.054C-41.538,80.344 -51.166,69.836 -59.776,59.776C-52.746,49.609 -43.421,37.831 -31.27,25.87C-20.259,15.032 -9.47,6.548 0,0C10.26,8.568 21.083,18.345 32.12,29.441C42.476,39.852 51.663,50.06 59.776,59.776C53.213,69.569 44.335,81.1 32.566,92.831C21.012,104.349 9.669,113.072 0,119.552Z" style="fill:none;fill-rule:nonzero;stroke:rgb(182,143,64);stroke-width:0.6px;stroke-linejoin:miter;stroke-miterlimit:10;"/>
            </g>
            <g transform="matrix(1,0,0,1,104.992,180.727)">
                <path d="M0,-0.286C8.751,9.872 17.979,19.813 27.451,29.285C27.528,29.362 27.604,29.438 27.681,29.515C37.089,38.912 46.96,48.069 57.041,56.752C68.049,49.249 78.401,40.688 87.831,31.288C97.429,21.721 106.156,11.201 113.791,-0.003C105.42,-9.954 96.541,-19.659 87.379,-28.87C77.63,-38.668 67.342,-48.135 56.758,-57.039C46.271,-49.675 36.339,-41.398 27.216,-32.418C17.22,-22.579 8.07,-11.775 0,-0.286M56.881,59.522L56.883,59.524L56.881,59.522ZM24.332,32.404C14.377,22.45 4.691,11.983 -4.462,1.289C-5.113,0.528 -5.17,-0.576 -4.6,-1.4C3.861,-13.637 13.524,-25.131 24.121,-35.562C33.824,-45.112 44.424,-53.881 55.627,-61.627C56.443,-62.191 57.534,-62.142 58.295,-61.506C69.436,-52.202 80.273,-42.261 90.507,-31.98C100.148,-22.288 109.479,-12.053 118.242,-1.559C118.87,-0.807 118.926,0.269 118.381,1.082C110.368,13.039 101.137,24.253 90.946,34.412C80.919,44.407 69.871,53.472 58.109,61.354C57.287,61.905 56.199,61.841 55.447,61.198C44.838,52.118 34.447,42.508 24.564,32.636C24.487,32.559 24.409,32.481 24.332,32.404" style="fill:rgb(182,143,64);fill-rule:nonzero;"/>
            </g>
            <g transform="matrix(1,0,0,1,0,-21.802)">
                <path d="M143.616,220.858L180.53,220.858L180.53,183.944L143.616,183.944L143.616,220.858ZM141.464,223.01C141.236,222.782 141.095,222.467 141.095,222.119L141.095,182.684C141.095,181.988 141.659,181.423 142.355,181.423L181.791,181.423C182.486,181.423 183.051,181.988 183.051,182.684L183.051,222.119C183.051,222.815 182.487,223.379 181.791,223.379L142.355,223.379C142.007,223.379 141.692,223.238 141.464,223.01" style="fill:rgb(182,143,64);fill-rule:nonzero;"/>
            </g>
            <g transform="matrix(1,0,0,1,148.641,148.19)">
                <path d="M0,64.787L13.266,88.857L26.315,66.331L31.669,51.589C31.797,51.236 32.048,50.94 32.375,50.755L43.906,44.24C43.94,44.22 43.976,44.202 44.012,44.185L69.068,32.447L43.163,21.212C43.077,21.175 42.995,21.13 42.917,21.079L32.277,14.003C32.025,13.836 31.827,13.599 31.706,13.322L26.55,1.511L13.237,-23.876L-0.451,2.379L-4.823,13.278C-4.998,13.714 -5.358,14.048 -5.805,14.192L-20.688,18.965L-43.103,32.248L-19.247,43.747C-19.236,43.752 -19.226,43.757 -19.215,43.763L-5.57,50.724C-5.214,50.905 -4.942,51.213 -4.805,51.588L0,64.787ZM-47.549,33.505C-47.824,33.231 -47.992,32.859 -48.009,32.459C-48.034,31.879 -47.738,31.332 -47.238,31.036L-22.142,16.164C-22.04,16.104 -21.932,16.055 -21.82,16.019L-7.472,11.418L-3.346,1.134C-3.327,1.085 -3.305,1.038 -3.281,0.992L11.836,-28.005C12.107,-28.525 12.644,-28.851 13.23,-28.852C13.817,-28.853 14.355,-28.527 14.628,-28.008L29.366,0.097C29.383,0.131 29.4,0.164 29.415,0.199L34.408,11.636L44.545,18.377L73.527,30.946C74.096,31.192 74.466,31.749 74.475,32.368C74.484,32.988 74.129,33.555 73.568,33.818L45.403,47.013L34.432,53.212L29.229,67.538C29.197,67.625 29.158,67.709 29.111,67.79L14.595,92.848C14.311,93.34 13.784,93.64 13.216,93.634C12.647,93.628 12.126,93.316 11.853,92.819L-2.818,66.201C-2.858,66.13 -2.891,66.056 -2.919,65.98L-7.554,53.248L-20.631,46.577L-47.119,33.81C-47.281,33.732 -47.426,33.629 -47.549,33.505" style="fill:rgb(182,143,64);fill-rule:nonzero;"/>
            </g>
            <g transform="matrix(1,0,0,1,130.303,169.574)">
                <path d="M0,24.45L0.393,39.398L16.459,42.374L31.361,29.978C31.688,29.706 32.111,29.578 32.533,29.622C32.956,29.667 33.342,29.88 33.606,30.213L45.839,45.715L59.915,45.176L61.395,24.83L50.815,14.184C50.28,13.645 50.205,12.8 50.639,12.175L60.664,-2.273L63.923,-15.776L46.729,-18.878L32.933,-7.934C32.34,-7.464 31.496,-7.482 30.923,-7.977L16.87,-20.141L1.662,-21.169L-1.311,-4.375L12.746,10.366C13.037,10.67 13.193,11.078 13.181,11.499C13.169,11.919 12.989,12.317 12.682,12.604L0,24.45ZM-2.262,41.829C-2.539,41.552 -2.712,41.172 -2.723,40.756L-3.168,23.824C-3.18,23.373 -2.998,22.939 -2.669,22.631L9.368,11.388L-4.141,-2.777C-4.487,-3.14 -4.64,-3.645 -4.553,-4.139L-1.195,-23.111C-1.054,-23.904 -0.339,-24.463 0.463,-24.409L17.609,-23.249C17.951,-23.226 18.275,-23.092 18.534,-22.868L31.998,-11.214L45.329,-21.789C45.684,-22.07 46.142,-22.185 46.588,-22.105L66.126,-18.58C66.553,-18.503 66.929,-18.253 67.166,-17.89C67.403,-17.527 67.479,-17.082 67.378,-16.66L63.658,-1.247C63.613,-1.058 63.532,-0.878 63.421,-0.718L53.975,12.894L64.135,23.118C64.457,23.441 64.622,23.888 64.589,24.342L62.955,46.811C62.897,47.611 62.246,48.24 61.444,48.27L45.159,48.894C44.655,48.913 44.173,48.688 43.862,48.296L32.134,33.434L17.906,45.268C17.546,45.568 17.072,45.691 16.612,45.606L-1.435,42.264C-1.757,42.204 -2.042,42.049 -2.262,41.829" style="fill:rgb(182,143,64);fill-rule:nonzero;"/>
            </g>
            <g transform="matrix(0.750502,0,0,0.754571,36.5516,40.3966)">
                <path d="M167.201,205.005C164.461,205.005 161.994,204.572 159.801,203.706C157.609,202.84 155.739,201.613 154.191,200.026C152.643,198.438 151.458,196.506 150.636,194.229C149.814,191.952 149.402,189.418 149.402,186.628C149.402,183.71 149.854,181.048 150.757,178.643C151.66,176.237 152.925,174.169 154.554,172.437C156.182,170.705 158.133,169.366 160.406,168.42C162.679,167.474 165.186,167.001 167.927,167.001C169.862,167.001 171.683,167.274 173.392,167.819C175.101,168.364 176.955,169.246 178.954,170.465L179.97,167.482L181.663,167.482L181.034,178.546L178.713,178.546C178.713,176.975 178.414,175.62 177.818,174.481C177.221,173.343 176.439,172.405 175.472,171.667C174.505,170.93 173.4,170.384 172.159,170.032C170.918,169.679 169.652,169.503 168.362,169.503C166.395,169.503 164.638,169.887 163.09,170.657C161.543,171.427 160.237,172.533 159.173,173.976C158.108,175.42 157.294,177.183 156.73,179.268C156.166,181.353 155.884,183.71 155.884,186.34C155.884,191.503 156.964,195.472 159.124,198.246C161.285,201.02 164.412,202.407 168.507,202.407C170.055,202.407 171.442,202.222 172.667,201.854C173.892,201.485 174.932,200.988 175.786,200.362C176.641,199.737 177.286,199.015 177.721,198.198C178.156,197.38 178.374,196.522 178.374,195.624C178.374,193.764 177.995,192.505 177.237,191.848C176.48,191.19 175.246,190.862 173.537,190.862L173.537,189.033L187.274,189.033L187.274,190.862C186.5,190.862 185.855,190.926 185.339,191.054C184.823,191.182 184.412,191.415 184.106,191.751C183.799,192.088 183.59,192.529 183.477,193.074C183.364,193.62 183.307,194.309 183.307,195.143L183.307,200.531C182.695,200.531 182.139,200.555 181.639,200.603C181.139,200.651 180.615,200.763 180.067,200.94C179.519,201.116 178.914,201.357 178.253,201.661C177.592,201.966 176.81,202.375 175.907,202.888C174.779,203.529 173.481,204.042 172.014,204.427C170.547,204.812 168.943,205.005 167.201,205.005Z" style="fill:rgb(182,143,64);fill-rule:nonzero;"/>
            </g>
        </g>
    </g>
</svg>
