<?xml version="1.0" encoding="UTF-8"?>
<svg version="1.1" xmlns="http://www.w3.org/2000/svg" width="200" height="212">
<path d="M0 0 C2.18990678 -0.00202548 4.37981291 -0.00494085 6.56971741 -0.00869751 C11.14118931 -0.01309945 15.71248435 -0.00675939 20.28393555 0.00732422 C26.10817794 0.02440441 31.9320051 0.0145684 37.75623226 -0.00339317 C42.27331094 -0.01429748 46.79029318 -0.01075416 51.30737495 -0.0030098 C53.45331434 -0.00102559 55.59926283 -0.00340359 57.74519157 -0.01044846 C78.46652799 -0.0635585 96.09212727 1.74797354 111.82421875 16.59375 C121.5675395 26.31330656 125.69223941 38.1213533 128.34765625 51.3984375 C128.34765625 67.5684375 128.34765625 83.7384375 128.34765625 100.3984375 C62.34765625 100.3984375 -3.65234375 100.3984375 -71.65234375 100.3984375 C-71.65234375 35.20629776 -71.65234375 35.20629776 -62.65234375 24.3984375 C-61.97945312 23.56570312 -61.3065625 22.73296875 -60.61328125 21.875 C-55.59168045 15.96619058 -50.26200824 11.43767691 -43.65234375 7.3984375 C-43.0078125 6.99882813 -42.36328125 6.59921875 -41.69921875 6.1875 C-28.91887661 -0.9544559 -14.13274431 -0.04634566 0 0 Z " fill="#FFFFFF" transform="translate(71.65234375,111.6015625)"/>
<path d="M0 0 C11.08434229 7.68411944 18.38327359 19.08065228 20.94140625 32.328125 C22.90328474 46.3555562 19.53737024 60.50680106 11.69140625 72.1875 C3.9494163 82.31934637 -7.31102584 88.84201167 -19.74609375 91.5625 C-37.04875529 93.08784407 -49.76834815 89.31149689 -63.93359375 79.3125 C-73.85197388 69.61452832 -79.82265341 56.43772685 -79.99609375 42.5625 C-79.97156956 28.13526981 -75.61506888 16.05453847 -65.43359375 5.6875 C-60.85147149 1.34035837 -56.52147416 -1.9126349 -50.74609375 -4.4375 C-49.98683594 -4.82679687 -49.22757813 -5.21609375 -48.4453125 -5.6171875 C-32.6009727 -12.76315724 -14.16703478 -8.82143621 0 0 Z " fill="#FFFFFF" transform="translate(128.74609375,8.4375)"/>
</svg>
